SplineFontDB: 3.2
FontName: Untitled1
FullName: Untitled1
FamilyName: Untitled1
Weight: Regular
Copyright: Copyright (c) 2020, 501475791
UComments: "2020-2-19: Created with FontForge (http://fontforge.org)"
Version: 001.000
StrokeWidth: 96
ItalicAngle: 0
UnderlinePosition: -192
UnderlineWidth: 96
Ascent: 1648
Descent: 400
InvalidEm: 0
LayerCount: 2
Layer: 0 0 "Back" 1
Layer: 1 0 "Fore" 0
XUID: [1021 633 -131660588 20145]
FSType: 0
OS2Version: 0
OS2_WeightWidthSlopeOnly: 0
OS2_UseTypoMetrics: 1
CreationTime: 1582156054
ModificationTime: 1582564582
PfmFamily: 17
TTFWeight: 400
TTFWidth: 5
LineGap: 384
VLineGap: 0
OS2TypoAscent: 0
OS2TypoAOffset: 1
OS2TypoDescent: 0
OS2TypoDOffset: 1
OS2TypoLinegap: 384
OS2WinAscent: 0
OS2WinAOffset: 1
OS2WinDescent: 0
OS2WinDOffset: 1
HheadAscent: 0
HheadAOffset: 1
HheadDescent: 0
HheadDOffset: 1
OS2Vendor: 'PfEd'
MarkAttachClasses: 1
DEI: 91125
LangName: 1033
Encoding: UnicodeBmp
UnicodeInterp: none
NameList: AGL For New Fonts
DisplaySize: -48
AntiAlias: 1
FitToEm: 0
WinInfo: 32 16 8
BeginPrivate: 0
EndPrivate
Grid
-1437.05950928 2672 m 0
 -1437.05950928 -1424 l 1024
4884 492 m 1049
-2048 624 m 0
 4096 624 l 1024
  Named: "half cap"
768 2672 m 0
 768 -1424 l 1024
  Named: "1/4 char"
256 2672 m 0
 256 -1424 l 1024
  Named: "3/4 char"
512 2672 m 0
 512 -1424 l 1024
  Named: "1/2 char"
-2048 1584 m 0
 4096 1584 l 1024
  Named: "accent"
-2048 1200 m 0
 4096 1200 l 1024
  Named: "cap"
-2048 816 m 0
 4096 816 l 1024
  Named: "ex"
-2048 432 m 0
 4096 432 l 1024
  Named: "half ex"
-2048 -336 m 0
 4096 -336 l 1024
  Named: "descender"
-2048 48 m 0
 4096 48 l 1024
  Named: "base"
0 -384 m 25
 0 1632 l 25
 1024 1632 l 25
 1024 -384 l 25
 0 -384 l 1049
16 -384 m 25
 16 1632 l 1049
32 -384 m 25
 32 1632 l 1049
48 -384 m 25
 48 1632 l 1049
64 -384 m 25
 64 1632 l 1049
80 -384 m 25
 80 1632 l 1049
96 -384 m 25
 96 1632 l 1049
112 -384 m 25
 112 1632 l 1049
128 -384 m 25
 128 1632 l 1049
144 -384 m 25
 144 1632 l 1049
160 -384 m 25
 160 1632 l 1049

StartChar: H
Encoding: 72 72 1
Width: 1024
VWidth: 0
Flags: HW
LayerCount: 2
Fore
SplineSet
558 1200 m 4
 558 1226.14447171 579.853633925 1248 606 1248 c 6
 926 1248 l 6
 952.144471708 1248 974 1226.14636608 974 1200 c 4
 974 1173.85363392 952.144471708 1152 926 1152 c 6
 606 1152 l 6
 579.853633925 1152 558 1173.85552829 558 1200 c 4
46 1200 m 4
 46 1226.14447171 67.8536339246 1248 94 1248 c 6
 414 1248 l 6
 440.144471708 1248 462 1226.14636608 462 1200 c 4
 462 1173.85363392 440.144471708 1152 414 1152 c 6
 94 1152 l 6
 67.8536339246 1152 46 1173.85552829 46 1200 c 4
558 48 m 4
 558 74.1444717079 579.853633925 96 606 96 c 6
 926 96 l 6
 952.144471708 96 974 74.1463660754 974 48 c 4
 974 21.8536339246 952.144471708 0 926 0 c 6
 606 0 l 6
 579.853633925 0 558 21.8555282921 558 48 c 4
47 48 m 4
 47 74.1444717079 68.8536339246 96 95 96 c 6
 414 96 l 6
 440.144471708 96 462 74.1463660754 462 48 c 4
 462 21.8536339246 440.144471708 0 414 0 c 6
 95 0 l 6
 68.8536339246 0 47 21.8555282921 47 48 c 4
224 672 m 4
 224 698.144471708 245.853633925 720 272 720 c 6
 412 720 l 5
 752 720 l 6
 778.144471708 720 800 698.146366075 800 672 c 4
 800 645.853633925 778.144471708 624 752 624 c 6
 412 624 l 5
 272 624 l 6
 245.853633925 624 224 645.855528292 224 672 c 4
768 1232 m 4
 794.144471708 1232 816 1210.14636608 816 1184 c 6
 816 63 l 6
 816 36.8555282921 794.146366075 15 768 15 c 4
 741.853633925 15 720 36.8555282921 720 63 c 6
 720 1184 l 6
 720 1210.14636608 741.855528292 1232 768 1232 c 4
256 15 m 4
 229.855528292 15 208 36.8536339246 208 63 c 6
 208 1184 l 6
 208 1210.14447171 229.853633925 1232 256 1232 c 4
 282.146366075 1232 304 1210.14447171 304 1184 c 6
 304 63 l 6
 304 36.8536339246 282.144471708 15 256 15 c 4
EndSplineSet
EndChar

StartChar: O
Encoding: 79 79 2
Width: 1024
VWidth: 0
Flags: HW
LayerCount: 2
Fore
SplineSet
192 624 m 0
 192 309.043945312 322.613898845 80 512 80 c 0
 701.385438205 80 831 309.044921875 831 624 c 0
 831 938.956054688 701.386101155 1168 512 1168 c 0
 322.614561795 1168 192 938.955078125 192 624 c 0
97 624 m 0
 97 963.044921875 241.385438205 1264 512 1264 c 0
 782.613898845 1264 927 963.043945312 927 624 c 0
 927 284.955078125 782.614561795 -16 512 -16 c 0
 241.386101155 -16 97 284.956054688 97 624 c 0
EndSplineSet
EndChar

StartChar: I
Encoding: 73 73 3
Width: 1024
VWidth: 0
Flags: HW
LayerCount: 2
Fore
SplineSet
160 48 m 4
 160 74.14453125 181.853515625 96 208 96 c 6
 816 96 l 6
 842.14453125 96 864 74.146484375 864 48 c 4
 864 21.853515625 842.14453125 -3.20167590865e-15 816 0 c 6
 208 0 l 6
 181.853515625 0 160 21.85546875 160 48 c 4
159 1200 m 4
 159 1226.14453125 180.853515625 1248 207 1248 c 6
 816 1248 l 6
 842.14453125 1248 864 1226.14648438 864 1200 c 4
 864 1173.85351562 842.14453125 1152 816 1152 c 6
 207 1152 l 6
 180.853515625 1152 159 1173.85546875 159 1200 c 4
512 1232 m 4
 538.144471708 1232 560 1210.14636608 560 1184 c 6
 560 64 l 6
 560 37.8555282921 538.146366075 16 512 16 c 4
 485.853633925 16 464 37.8555282921 464 64 c 6
 464 1184 l 6
 464 1210.14636608 485.855528292 1232 512 1232 c 4
EndSplineSet
EndChar

StartChar: emdash
Encoding: 8212 8212 4
Width: 1024
VWidth: 0
Flags: HW
LayerCount: 2
Fore
SplineSet
0 624 m 4
 0 650.14453125 21.853515625 672 48 672 c 6
 976 672 l 6
 1002.14453125 672 1024 650.146484375 1024 624 c 4
 1024 597.853515625 1002.14453125 576 976 576 c 6
 48 576 l 6
 21.853515625 576 0 597.85546875 0 624 c 4
EndSplineSet
EndChar

StartChar: endash
Encoding: 8211 8211 5
Width: 1024
VWidth: 0
Flags: HW
LayerCount: 2
Fore
SplineSet
48 624 m 0
 48 650.14453125 69.853515625 672 96 672 c 2
 928 672 l 2
 954.14453125 672 976 650.146484375 976 624 c 0
 976 597.853515625 954.14453125 576 928 576 c 2
 96 576 l 2
 69.853515625 576 48 597.85546875 48 624 c 0
EndSplineSet
EndChar

StartChar: hyphen
Encoding: 45 45 6
Width: 1024
VWidth: 0
Flags: HW
LayerCount: 2
Fore
SplineSet
96 624 m 4
 96 650.14453125 117.853515625 672 144 672 c 6
 880 672 l 6
 906.14453125 672 928 650.146484375 928 624 c 4
 928 597.853515625 906.14453125 576 880 576 c 6
 144 576 l 6
 117.853515625 576 96 597.85546875 96 624 c 4
EndSplineSet
EndChar

StartChar: period
Encoding: 46 46 7
Width: 1024
VWidth: 0
Flags: HW
LayerCount: 2
Fore
SplineSet
320 144 m 4
 320 223 406 288 512 288 c 4
 618 288 704 223 704 144 c 4
 704 119.877325594 695.98146224 97.0599945451 681.823439706 77.0000023415 c 4
 649.61497064 31.3649825646 585.632867253 2.01314659387e-14 512 0 c 4
 406 0 320 65 320 144 c 4
EndSplineSet
EndChar

StartChar: slash
Encoding: 47 47 8
Width: 1024
VWidth: 0
Flags: HW
LayerCount: 2
Fore
SplineSet
106.533747416 -186.932505168 m 4
 83.1494210261 -175.240341973 73.3744844502 -145.91976818 85.067494832 -122.533747416 c 6
 853.067494832 1413.46625258 l 6
 864.759658027 1436.85057897 894.08023182 1446.62551555 917.466252584 1434.93250517 c 4
 940.852273348 1423.23949479 950.624668363 1393.91807381 938.932505168 1370.53374742 c 6
 170.932505168 -165.466252584 l 6
 159.239494786 -188.852273348 129.918073806 -198.624668363 106.533747416 -186.932505168 c 4
EndSplineSet
EndChar

StartChar: one
Encoding: 49 49 9
Width: 1024
VWidth: 0
Flags: HW
LayerCount: 2
Fore
SplineSet
160 48 m 0
 160 74.14453125 181.853515625 96 208 96 c 2
 464 96 l 1
 464 1065.27823506 l 1
 382.804705056 984.773613866 293.662890591 944 208 944 c 0
 181.853633925 944 160 965.855528292 160 992 c 0
 160 1018.14447171 181.853633925 1040 208 1040 c 0
 282.000659503 1040 381.400183688 1090.63350614 472.061585872 1226.62560942 c 0
 476.564191691 1233.37951815 482.590237054 1238.62091972 489.410803829 1242.20390847 c 0
 496.176274338 1245.89269134 503.881342763 1247.99999944 512 1248 c 0
 516.812137272 1248 521.478970845 1247.25965251 525.890965247 1245.888456 c 0
 530.324403287 1244.58204914 534.619962246 1242.60884601 538.625609419 1239.93841413 c 0
 545.379674897 1235.43570381 550.620977053 1229.40975463 554.203867059 1222.58942391 c 0
 557.892635937 1215.82407826 559.999999994 1208.11900902 560 1200 c 2
 560 96 l 1
 816 96 l 2
 842.14453125 96 864 74.146484375 864 48 c 0
 864 21.853515625 842.14453125 -3.20167590865e-15 816 0 c 2
 208 0 l 2
 181.853515625 0 160 21.85546875 160 48 c 0
EndSplineSet
EndChar

StartChar: backslash
Encoding: 92 92 10
Width: 1024
VWidth: 0
Flags: HW
LayerCount: 2
Fore
SplineSet
917.465820312 -186.932617188 m 0
 940.850585938 -175.240234375 950.625976562 -145.919921875 938.932617188 -122.534179688 c 2
 170.932617188 1413.46582031 l 2
 159.240234375 1436.85058594 129.919921875 1446.62597656 106.534179688 1434.93261719 c 0
 83.1474609375 1423.23925781 73.375 1393.91796875 85.0673828125 1370.53417969 c 2
 853.067382812 -165.465820312 l 2
 864.760742188 -188.852539062 894.08203125 -198.625 917.465820312 -186.932617188 c 0
EndSplineSet
EndChar

StartChar: asciitilde
Encoding: 126 126 11
Width: 1024
VWidth: 0
Flags: HW
LayerCount: 2
Fore
SplineSet
144.099150444 384.000102404 m 0
 117.954734513 383.946097488 96.0541112337 405.754539262 96.0001024044 431.900849556 c 0
 95.5961826878 627.443140938 164.288500026 768 304 768 c 0
 554.122425975 768 554.119925992 576 720 576 c 0
 772.23465528 576 832 627.360828494 832 816 c 0
 832 842.144471708 853.853633925 864 880 864 c 0
 906.146366075 864 928 842.144471708 928 816 c 0
 928 620.639171506 859.775110345 480 720 480 c 0
 469.880074008 480 469.877574025 672 304 672 c 0
 251.711499974 672 191.610612067 620.556859062 191.999897596 432.099150444 c 0
 192.053906425 405.95284015 170.243566375 384.054107321 144.099150444 384.000102404 c 0
EndSplineSet
EndChar

StartChar: bar
Encoding: 124 124 12
Width: 1024
VWidth: 0
Flags: HW
LayerCount: 2
Fore
SplineSet
1448 -94 m 1053
512 1440 m 0
 538.144471708 1440 560 1418.14636608 560 1392 c 2
 560 -194 l 2
 560 -220.144471708 538.146366075 -242 512 -242 c 0
 485.853633925 -242 464 -220.144471708 464 -194 c 2
 464 1392 l 2
 464 1418.14636608 485.855528292 1440 512 1440 c 0
EndSplineSet
EndChar

StartChar: plus
Encoding: 43 43 13
Width: 1024
VWidth: 0
Flags: HW
LayerCount: 2
Fore
SplineSet
512 208 m 0
 485.85546875 208 464 229.853515625 464 256 c 2
 464 992 l 2
 464 1018.14453125 485.853515625 1040 512 1040 c 0
 538.146484375 1040 560 1018.14453125 560 992 c 2
 560 256 l 2
 560 229.853515625 538.14453125 208 512 208 c 0
96 624 m 0
 96 650.14453125 117.853515625 672 144 672 c 2
 880 672 l 2
 906.14453125 672 928 650.146484375 928 624 c 0
 928 597.853515625 906.14453125 576 880 576 c 2
 144 576 l 2
 117.853515625 576 96 597.85546875 96 624 c 0
EndSplineSet
EndChar

StartChar: zero
Encoding: 48 48 14
Width: 1024
VWidth: 0
Flags: HW
LayerCount: 2
Fore
SplineSet
416 624 m 4
 416 677 459 720 512 720 c 4
 565 720 608 677 608 624 c 4
 608 571 565 528 512 528 c 4
 459 528 416 571 416 624 c 4
192 624 m 0
 192 309.043945312 322.613898845 80 512 80 c 0
 701.385438205 80 831 309.044921875 831 624 c 0
 831 938.956054688 701.386101155 1168 512 1168 c 0
 322.614561795 1168 192 938.955078125 192 624 c 0
97 624 m 0
 97 963.044921875 241.385438205 1264 512 1264 c 0
 782.613898845 1264 927 963.043945312 927 624 c 0
 927 284.955078125 782.614561795 -16 512 -16 c 0
 241.386101155 -16 97 284.956054688 97 624 c 0
EndSplineSet
EndChar

StartChar: comma
Encoding: 44 44 15
Width: 1024
VWidth: 0
Flags: HW
LayerCount: 2
Fore
SplineSet
656 192 m 4
 682.144471708 192 704 170.146366075 704 144 c 4
 704 -129.676750537 398.457924908 -373.099726978 398.064217161 -373.426726117 c 4
 376.744250577 -389.986114034 347.404265847 -386.328771179 331.075121706 -366.668442461 c 4
 314.746239379 -347.008428967 316.562479821 -317.471838532 336.695953111 -299.604815104 c 4
 342.396937308 -294.853643844 608 -63.2203952611 608 144 c 4
 608 170.146366075 629.855528292 192 656 192 c 4
320 144 m 0
 320 223 406 288 512 288 c 0
 618 288 704 223 704 144 c 0
 704 119.877325594 695.98146224 97.0599945451 681.823439706 77.0000023415 c 0
 649.61497064 31.3649825646 585.632867253 2.01314659387e-14 512 0 c 0
 406 0 320 65 320 144 c 0
EndSplineSet
EndChar

StartChar: minus
Encoding: 8722 8722 16
Width: 1024
VWidth: 0
Flags: HW
LayerCount: 2
Fore
SplineSet
96 624 m 0
 96 650.14453125 117.853515625 672 144 672 c 2
 880 672 l 2
 906.14453125 672 928 650.146484375 928 624 c 0
 928 597.853515625 906.14453125 576 880 576 c 2
 144 576 l 2
 117.853515625 576 96 597.85546875 96 624 c 0
EndSplineSet
EndChar

StartChar: equal
Encoding: 61 61 17
Width: 1024
VWidth: 0
Flags: HW
LayerCount: 2
Fore
SplineSet
96 768 m 4
 96 794.14453125 117.853515625 816 144 816 c 6
 880 816 l 6
 906.14453125 816 928 794.146484375 928 768 c 4
 928 741.853515625 906.14453125 720 880 720 c 6
 144 720 l 6
 117.853515625 720 96 741.85546875 96 768 c 4
96 480 m 4
 96 506.14453125 117.853515625 528 144 528 c 6
 880 528 l 6
 906.14453125 528 928 506.146484375 928 480 c 4
 928 453.853515625 906.14453125 432 880 432 c 6
 144 432 l 6
 117.853515625 432 96 453.85546875 96 480 c 4
EndSplineSet
EndChar

StartChar: colon
Encoding: 58 58 18
Width: 1024
VWidth: 0
Flags: HW
LayerCount: 2
Fore
SplineSet
320 672 m 4
 320 751 406 816 512 816 c 4
 618 816 704 751 704 672 c 4
 704 647.876953125 695.981445312 625.059570312 681.823242188 605 c 4
 649.615234375 559.365234375 585.6328125 528 512 528 c 4
 406 528 320 593 320 672 c 4
320 144 m 0
 320 223 406 288 512 288 c 0
 618 288 704 223 704 144 c 0
 704 119.877325594 695.98146224 97.0599945451 681.823439706 77.0000023415 c 0
 649.61497064 31.3649825646 585.632867253 2.01314659387e-14 512 0 c 0
 406 0 320 65 320 144 c 0
EndSplineSet
EndChar

StartChar: semicolon
Encoding: 59 59 19
Width: 1024
VWidth: 0
Flags: HW
LayerCount: 2
Fore
SplineSet
320 144 m 0
 320 223 406 288 512 288 c 0
 618 288 704 223 704 144 c 0
 704 -129.676750537 398.457924908 -373.099726978 398.064217161 -373.426726117 c 0
 376.744250577 -389.986114034 347.404265847 -386.328771179 331.075121706 -366.668442461 c 0
 314.746239379 -347.008428967 316.562479821 -317.471838532 336.695953111 -299.604815104 c 0
 341.159772515 -295.884690695 504.963040492 -153.068852621 575.846388057 8.21305030118 c 1
 555.870012331 2.89769761829 534.380805799 3.30335610645e-10 512 0 c 0
 406 0 320 65 320 144 c 0
320 672 m 0
 320 751 406 816 512 816 c 0
 618 816 704 751 704 672 c 0
 704 647.876953125 695.981445312 625.059570312 681.823242188 605 c 0
 649.615234375 559.365234375 585.6328125 528 512 528 c 0
 406 528 320 593 320 672 c 0
EndSplineSet
EndChar

StartChar: less
Encoding: 60 60 20
Width: 1024
VWidth: 0
Flags: HW
LayerCount: 2
Fore
SplineSet
921.621066039 1079.90997411 m 4
 934.644266905 1057.23995778 926.581633047 1027.40307846 903.909974107 1014.37893396 c 6
 224.361459434 624 l 5
 903.909974107 233.621066039 l 6
 926.57999043 220.597865172 934.645210536 190.761684832 921.621066039 168.090025893 c 4
 908.596921541 145.418366953 878.760042216 137.355733095 856.090025893 150.378933961 c 6
 104.090025893 582.378933961 l 6
 99.7097695774 584.895251419 92.42162984 590.994862405 88.3831381142 596.898261046 c 4
 72.8046207412 619.670673259 80.1655647551 651.877226662 104.090025893 665.621066039 c 6
 856.090025893 1097.62106604 l 6
 878.761684832 1110.64521054 908.597865172 1102.57999043 921.621066039 1079.90997411 c 4
EndSplineSet
EndChar

StartChar: eight
Encoding: 56 56 21
Width: 1024
VWidth: 0
Flags: HW
LayerCount: 2
Fore
SplineSet
152 944 m 4
 152 1126.13403844 319.116449403 1264 512 1264 c 4
 704.883616445 1264 872 1126.13414687 872 944 c 4
 872 829.464898405 805.913283259 732.435744715 708.890735649 676.188546949 c 5
 837.711335916 615.053217631 928 495.374360122 928 352 c 4
 928 142.768119417 735.71494738 -16 512 -16 c 4
 288.285109543 -16 96 142.768192874 96 352 c 4
 96 495.374394512 186.288617272 615.053222697 315.10919613 676.188541512 c 5
 218.086672889 732.435720253 152 829.464845654 152 944 c 4
192 352 m 4
 192 207.231807126 329.714890457 80 512 80 c 4
 694.28505262 80 832 207.231880583 832 352 c 4
 832 496.768192874 694.285109543 624 512 624 c 4
 329.71494738 624 192 496.768119417 192 352 c 4
512 720 m 4
 663.116449403 720 776 826.13403844 776 944 c 4
 776 1061.86585313 663.116383555 1168 512 1168 c 4
 360.883550597 1168 248 1061.86596156 248 944 c 4
 248 826.13414687 360.883616445 720 512 720 c 4
EndSplineSet
EndChar

StartChar: greater
Encoding: 62 62 22
Width: 1024
VWidth: 0
Flags: HW
LayerCount: 2
Fore
SplineSet
88.3828125 1079.91015625 m 0
 75.359375 1057.24023438 83.421875 1027.40332031 106.09375 1014.37890625 c 2
 785.642578125 624 l 1
 106.09375 233.62109375 l 2
 83.423828125 220.59765625 75.3583984375 190.76171875 88.3828125 168.08984375 c 0
 101.407226562 145.41796875 131.244140625 137.35546875 153.9140625 150.37890625 c 2
 905.9140625 582.37890625 l 2
 910.293945312 584.895507812 917.58203125 590.995117188 921.62109375 596.8984375 c 0
 937.19921875 619.670898438 929.837890625 651.876953125 905.9140625 665.62109375 c 2
 153.9140625 1097.62109375 l 2
 131.2421875 1110.64550781 101.40625 1102.58007812 88.3828125 1079.91015625 c 0
EndSplineSet
EndChar

StartChar: underscore
Encoding: 95 95 23
Width: 1024
VWidth: 0
Flags: HW
LayerCount: 2
Fore
SplineSet
96 48 m 0
 96 74.14453125 117.853515625 96 144 96 c 2
 880 96 l 2
 906.14453125 96 928 74.146484375 928 48 c 0
 928 21.853515625 906.14453125 0 880 0 c 2
 144 0 l 2
 117.853515625 0 96 21.85546875 96 48 c 0
EndSplineSet
EndChar

StartChar: asciicircum
Encoding: 94 94 24
Width: 1024
VWidth: 0
Flags: HW
LayerCount: 2
Fore
SplineSet
142.05859375 830.05859375 m 0
 123.572265625 848.545898438 123.5703125 879.453125 142.05859375 897.94140625 c 2
 478.058874503 1233.9411255 l 2
 498.603489161 1254.48574015 531.373724316 1248.50852668 545.941125497 1233.9411255 c 2
 881.94140625 897.94140625 l 2
 900.427734375 879.454101562 900.4296875 848.546875 881.94140625 830.05859375 c 0
 863.453125 811.5703125 832.545898438 811.572265625 814.05859375 830.05859375 c 2
 512 1132.11774901 l 1
 209.94140625 830.05859375 l 2
 191.453125 811.5703125 160.545898438 811.572265625 142.05859375 830.05859375 c 0
EndSplineSet
EndChar

StartChar: U
Encoding: 85 85 25
Width: 1024
VWidth: 0
Flags: HW
LayerCount: 2
Fore
SplineSet
768 1248 m 0
 794.144471708 1248 816 1226.14636608 816 1200 c 2
 816 288 l 2
 816 261.855528292 794.146366075 240 768 240 c 0
 741.853633925 240 720 261.855528292 720 288 c 2
 720 1200 l 2
 720 1226.14636608 741.855528292 1248 768 1248 c 0
256 1248 m 0
 282.144471708 1248 304 1226.14636608 304 1200 c 2
 304 288 l 2
 304 261.855528292 282.146366075 240 256 240 c 0
 229.853633925 240 208 261.855528292 208 288 c 2
 208 1200 l 2
 208 1226.14636608 229.855528292 1248 256 1248 c 0
558 1200 m 0
 558 1226.14447171 579.853633925 1248 606 1248 c 2
 926 1248 l 2
 952.144471708 1248 974 1226.14636608 974 1200 c 0
 974 1173.85363392 952.144471708 1152 926 1152 c 2
 606 1152 l 2
 579.853633925 1152 558 1173.85552829 558 1200 c 0
46 1200 m 0
 46 1226.14447171 67.8536339246 1248 94 1248 c 2
 414 1248 l 2
 440.144471708 1248 462 1226.14636608 462 1200 c 0
 462 1173.85363392 440.144471708 1152 414 1152 c 2
 94 1152 l 2
 67.8536339246 1152 46 1173.85552829 46 1200 c 0
768 336 m 0
 794.144471708 336 816 314.146366075 816 288 c 0
 816 120.44592155 679.554060986 -16 512 -16 c 0
 344.44592155 -16 208 120.445939014 208 288 c 0
 208 314.144471708 229.853633925 336 256 336 c 0
 282.146366075 336 304 314.144471708 304 288 c 0
 304 173.554060986 397.55407845 80 512 80 c 0
 626.445939014 80 720 173.55407845 720 288 c 0
 720 314.146366075 741.855528292 336 768 336 c 0
EndSplineSet
EndChar

StartChar: J
Encoding: 74 74 26
Width: 1023
VWidth: 0
Flags: HW
LayerCount: 2
Fore
SplineSet
96 335 m 4
 96 388 139 431 192 431 c 4
 245 431 288 388 288 335 c 4
 288 282 245 239 192 239 c 4
 139 239 96 282 96 335 c 4
336 1200 m 0
 336 1226.14453125 357.853515625 1248 384 1248 c 2
 928 1248 l 2
 954.144471708 1248 976 1226.14636608 976 1200 c 0
 976 1173.85363392 954.144471708 1152 928 1152 c 2
 384 1152 l 2
 357.853515625 1152 336 1173.85546875 336 1200 c 0
656 1232 m 0
 682.14453125 1232 704 1210.14648438 704 1184 c 2
 704 289 l 2
 704 262.85546875 682.146484375 241 656 241 c 0
 629.853515625 241 608 262.85546875 608 289 c 2
 608 1184 l 2
 608 1210.14648438 629.85546875 1232 656 1232 c 0
656 336 m 0
 682.14453125 336 704 314.146484375 704 288 c 0
 704 120.698242188 568.732421875 -16 401 -16 c 0
 233.876953125 -16 96 119.015625 96 287 c 0
 96 313.14453125 117.853515625 335 144 335 c 0
 170.146484375 335 192 313.14453125 192 287 c 0
 192 172.984375 286.123046875 80 401 80 c 0
 515.267578125 80 608 173.301757812 608 288 c 0
 608 314.146484375 629.85546875 336 656 336 c 0
EndSplineSet
EndChar

StartChar: question
Encoding: 63 63 27
Width: 1024
VWidth: 0
Flags: HW
LayerCount: 2
Fore
SplineSet
880 1056 m 0
 906.144471708 1056 928 1034.14636608 928 1008 c 0
 928 849.617667056 799.996553621 822.367717771 727.103112829 782.341722076 c 0
 635.156766666 731.853725001 560 708.644926558 560 480 c 0
 560 453.855528292 538.146366075 432 512 432 c 0
 485.853633925 432 464 453.855528292 464 480 c 0
 464 745.271089067 583.667452084 813.101353124 680.896887171 866.490309174 c 0
 786.519071379 924.487750979 832 917.705426442 832 1008 c 0
 832 1034.14636608 853.855528292 1056 880 1056 c 0
96 960 m 0
 96 1013 139 1056 192 1056 c 0
 245 1056 288 1013 288 960 c 0
 288 907 245 864 192 864 c 0
 139 864 96 907 96 960 c 0
144 960 m 0
 117.85546875 960 96 981.853515625 96 1008 c 0
 96 1171.70117188 305.557617188 1264 512 1264 c 0
 718.469726562 1264 928 1171.70507812 928 1008 c 0
 928 981.85546875 906.146484375 960 880 960 c 0
 853.853515625 960 832 981.85546875 832 1008 c 0
 832 1074.29492188 711.530273438 1168 512 1168 c 0
 312.442382812 1168 192 1074.29882812 192 1008 c 0
 192 981.853515625 170.14453125 960 144 960 c 0
320 144 m 0
 320 223 406 288 512 288 c 0
 618 288 704 223 704 144 c 0
 704 119.876953125 695.981445312 97.0595703125 681.823242188 77 c 0
 649.615234375 31.365234375 585.6328125 0 512 0 c 0
 406 0 320 65 320 144 c 0
EndSplineSet
EndChar

StartChar: exclam
Encoding: 33 33 28
Width: 1024
VWidth: 0
Flags: HW
LayerCount: 2
Fore
SplineSet
320.000000636 1104.0078125 m 0
 320.000000636 1123.12970059 332.20363141 1141.60008519 350.64270118 1148.75180642 c 0
 376.366762464 1158.72906218 406.047395771 1144.22025157 413.975661691 1117.79269851 c 2
 532.660120085 1059.77606822 591.840551301 736.549430773 557.975661691 637.792698507 c 2
 563.593725735 619.06581836 556.664095587 596.874932494 539.836777098 584.896114761 c 0
 517.359232148 568.895085588 485.020843609 575.653355008 470.832660403 599.317006857 c 0
 469.438633616 601.642023673 319.958083652 846.469862747 320.000000636 1104.0078125 c 0
703.999999364 1104.0078125 m 0
 704.041916348 846.469862747 554.561366384 601.642023673 553.167339597 599.317006857 c 0
 538.979156391 575.653355008 506.640767852 568.895085588 484.163222902 584.896114761 c 0
 467.301564539 596.899377927 460.435237127 619.162361233 466.024338309 637.792698507 c 2
 420.650940518 770.110522344 498.42528211 1063.23963174 610.024338309 1117.79269851 c 2
 617.952604229 1144.22025157 647.633237536 1158.72906218 673.35729882 1148.75180642 c 0
 692.980755646 1141.14071245 703.999999364 1119.7644329 703.999999364 1104.0078125 c 0
320 1103 m 0
 320 1182 406 1247 512 1247 c 0
 618 1247 704 1182 704 1103 c 0
 704 1078.87695312 695.981445312 1056.05957031 681.823242188 1036 c 0
 649.615234375 990.365234375 585.6328125 959 512 959 c 0
 406 959 320 1024 320 1103 c 0
320 144 m 0
 320 223 406 288 512 288 c 0
 618 288 704 223 704 144 c 0
 704 119.877325594 695.98146224 97.0599945451 681.823439706 77.0000023415 c 0
 649.61497064 31.3649825646 585.632867253 2.01314659387e-14 512 0 c 0
 406 0 320 65 320 144 c 0
EndSplineSet
EndChar

StartChar: V
Encoding: 86 86 29
Width: 1024
VWidth: 0
Flags: HW
LayerCount: 2
Fore
SplineSet
196.822966458 1230.68055185 m 0
 222.248765775 1236.76841929 248.592243297 1220.60467515 254.680551852 1195.17703354 c 2
 512 120.489926571 l 1
 769.319448148 1195.17703354 l 2
 775.40731559 1220.60283286 801.749391931 1236.76886041 827.177033542 1230.68055185 c 0
 852.604675153 1224.5922433 868.768419294 1198.24876577 862.680551852 1172.82296646 c 2
 590.680551852 36.822966458 l 2
 585.990690414 17.2358980997 566.738139935 0 544 0 c 2
 512 0 l 1
 480 0 l 2
 459.859293777 0 438.614134663 14.7098639531 433.319448148 36.822966458 c 2
 161.319448148 1172.82296646 l 2
 155.231139593 1198.25060807 171.397167141 1224.59268441 196.822966458 1230.68055185 c 0
1008 1200 m 0
 1008 1173.85552829 986.146366075 1152 960 1152 c 2
 640 1152 l 2
 613.855528292 1152 592 1173.85363392 592 1200 c 0
 592 1226.14636608 613.855528292 1248 640 1248 c 2
 960 1248 l 2
 986.146366075 1248 1008 1226.14447171 1008 1200 c 0
16 1200 m 0
 16 1226.14447171 37.8536339246 1248 64 1248 c 2
 384 1248 l 2
 410.144471708 1248 432 1226.14636608 432 1200 c 0
 432 1173.85363392 410.144471708 1152 384 1152 c 2
 64 1152 l 2
 37.8536339246 1152 16 1173.85552829 16 1200 c 0
EndSplineSet
EndChar

StartChar: Y
Encoding: 89 89 30
Width: 1024
VWidth: 0
Flags: HW
LayerCount: 2
Fore
SplineSet
512 672 m 0
 538.144471708 672 560 650.146366075 560 624 c 2
 560 64 l 2
 560 37.8555282921 538.146366075 16 512 16 c 0
 485.853633925 16 464 37.8555282921 464 64 c 2
 464 624 l 2
 464 650.146366075 485.855528292 672 512 672 c 0
160 48 m 0
 160 74.14453125 181.853515625 96 208 96 c 2
 816 96 l 2
 842.14453125 96 864 74.146484375 864 48 c 0
 864 21.853515625 842.14453125 -3.20167590865e-15 816 0 c 2
 208 0 l 2
 181.853515625 0 160 21.85546875 160 48 c 0
168.185330959 1225.67567082 m 0
 190.885089224 1238.64696126 220.703440515 1230.51607208 233.675670822 1207.81466904 c 2
 510.92473586 722.628805225 l 1
 773.81503528 1206.90040942 l 2
 786.288349992 1229.8775681 815.921585868 1238.65918322 838.900409419 1226.18496472 c 0
 861.87923297 1213.71074622 870.658279432 1184.07674926 858.18496472 1161.09959058 c 2
 554.18496472 601.099590581 l 2
 551.906923676 596.903199183 545.286032928 588.592895148 539.011011799 584.321224293 c 0
 516.203010521 568.794858354 484.013385663 576.22948211 470.324329178 600.185330959 c 2
 150.324329178 1160.18533096 l 2
 137.352098872 1182.886734 145.485572694 1212.70438038 168.185330959 1225.67567082 c 0
590 1200 m 0
 590 1226.14453125 611.853515625 1248 638 1248 c 2
 958 1248 l 2
 984.14453125 1248 1006 1226.14648438 1006 1200 c 0
 1006 1173.85351562 984.14453125 1152 958 1152 c 2
 638 1152 l 2
 611.853515625 1152 590 1173.85546875 590 1200 c 0
14 1200 m 0
 14 1226.14453125 35.853515625 1248 62 1248 c 2
 382 1248 l 2
 408.14453125 1248 430 1226.14648438 430 1200 c 0
 430 1173.85351562 408.14453125 1152 382 1152 c 2
 62 1152 l 2
 35.853515625 1152 14 1173.85546875 14 1200 c 0
EndSplineSet
EndChar

StartChar: quoteright
Encoding: 8217 8217 31
Width: 1024
VWidth: 0
Flags: HW
LayerCount: 2
Fore
SplineSet
656 1152 m 0
 682.14453125 1152 704 1130.14648438 704 1104 c 0
 704 830.323242188 398.458007812 586.900390625 398.064453125 586.573242188 c 0
 376.744140625 570.013671875 347.404296875 573.670898438 331.075195312 593.33203125 c 0
 314.74609375 612.991210938 316.5625 642.528320312 336.696289062 660.395507812 c 0
 342.396484375 665.146484375 608 896.779296875 608 1104 c 0
 608 1130.14648438 629.85546875 1152 656 1152 c 0
320 1104 m 0
 320 1183 406 1248 512 1248 c 0
 618 1248 704 1183 704 1104 c 0
 704 1079.87695312 695.981445312 1057.05957031 681.823242188 1037 c 0
 649.615234375 991.365234375 585.6328125 960 512 960 c 0
 406 960 320 1025 320 1104 c 0
EndSplineSet
EndChar

StartChar: quoteleft
Encoding: 8216 8216 32
Width: 1024
VWidth: 0
Flags: HW
LayerCount: 2
Fore
SplineSet
368 671.573242188 m 4
 341.85546875 671.573242188 320 693.426757812 320 719.573242188 c 4
 320 993.25 625.541992188 1236.67285156 625.935546875 1237 c 4
 647.255859375 1253.55957031 676.595703125 1249.90234375 692.924804688 1230.24121094 c 4
 709.25390625 1210.58203125 707.4375 1181.04492188 687.303710938 1163.17773438 c 4
 681.603515625 1158.42675781 416 926.793945312 416 719.573242188 c 4
 416 693.426757812 394.14453125 671.573242188 368 671.573242188 c 4
704 719.573242188 m 4
 704 640.573242188 618 575.573242188 512 575.573242188 c 4
 406 575.573242188 320 640.573242188 320 719.573242188 c 4
 320 743.696289062 328.018554688 766.513671875 342.176757812 786.573242188 c 4
 374.384765625 832.208007812 438.3671875 863.573242188 512 863.573242188 c 4
 618 863.573242188 704 798.573242188 704 719.573242188 c 4
EndSplineSet
EndChar

StartChar: quotedblleft
Encoding: 8220 8220 33
Width: 1024
VWidth: 0
Flags: HW
LayerCount: 2
Fore
SplineSet
861.96875 1237.49511719 m 4
 882.864257812 1220.79394531 884.75 1190.41015625 870.013671875 1170.68164062 c 4
 866.766601562 1166.60546875 688 935.345703125 688 720 c 4
 688 693.85546875 666.146484375 672 640 672 c 4
 613.853515625 672 592 693.85546875 592 720 c 4
 592 982.662109375 791.994140625 1226.82714844 794.995117188 1230.58203125 c 4
 811.044921875 1249.3671875 841.072265625 1254.19628906 861.96875 1237.49511719 c 4
593 719 m 4
 593 798 658 863 737 863 c 4
 816 863 881 798 881 719 c 4
 881 640 816 575 737 575 c 4
 658 575 593 640 593 719 c 4
413.96875 1237.49511719 m 0
 434.864257812 1220.79394531 436.75 1190.41015625 422.013671875 1170.68164062 c 0
 418.766601562 1166.60546875 240 935.345703125 240 720 c 0
 240 693.85546875 218.146484375 672 192 672 c 0
 165.853515625 672 144 693.85546875 144 720 c 0
 144 982.662109375 343.994140625 1226.82714844 346.995117188 1230.58203125 c 0
 363.044921875 1249.3671875 393.072265625 1254.19628906 413.96875 1237.49511719 c 0
145 719 m 0
 145 798 210 863 289 863 c 0
 368 863 433 798 433 719 c 0
 433 640 368 575 289 575 c 0
 210 575 145 640 145 719 c 0
EndSplineSet
EndChar

StartChar: quotedblright
Encoding: 8221 8221 34
Width: 1024
VWidth: 0
Flags: HW
LayerCount: 2
Fore
SplineSet
163.03125 586 m 4
 142.135742188 602.701171875 140.25 633.084960938 154.986328125 652.813476562 c 4
 158.233398438 656.889648438 337 888.149414062 337 1103.49511719 c 4
 337 1129.63964844 358.853515625 1151.49511719 385 1151.49511719 c 4
 411.146484375 1151.49511719 433 1129.63964844 433 1103.49511719 c 4
 433 840.833007812 233.005859375 596.66796875 230.004882812 592.913085938 c 4
 213.955078125 574.127929688 183.927734375 569.298828125 163.03125 586 c 4
432 1104.49511719 m 4
 432 1025.49511719 367 960.495117188 288 960.495117188 c 4
 209 960.495117188 144 1025.49511719 144 1104.49511719 c 4
 144 1183.49511719 209 1248.49511719 288 1248.49511719 c 4
 367 1248.49511719 432 1183.49511719 432 1104.49511719 c 4
611.03125 586 m 4
 590.135742188 602.701171875 588.25 633.084960938 602.986328125 652.813476562 c 4
 606.233398438 656.889648438 785 888.149414062 785 1103.49511719 c 4
 785 1129.63964844 806.853515625 1151.49511719 833 1151.49511719 c 4
 859.146484375 1151.49511719 881 1129.63964844 881 1103.49511719 c 4
 881 840.833007812 681.005859375 596.66796875 678.004882812 592.913085938 c 4
 661.955078125 574.127929688 631.927734375 569.298828125 611.03125 586 c 4
880 1104.49511719 m 4
 880 1025.49511719 815 960.495117188 736 960.495117188 c 4
 657 960.495117188 592 1025.49511719 592 1104.49511719 c 4
 592 1183.49511719 657 1248.49511719 736 1248.49511719 c 4
 815 1248.49511719 880 1183.49511719 880 1104.49511719 c 4
EndSplineSet
EndChar

StartChar: quotedbl
Encoding: 34 34 35
Width: 1026
VWidth: 0
Flags: HW
LayerCount: 2
Fore
SplineSet
799.03515625 1138.34765625 m 0
 797.749023438 884.44140625 761.01953125 672.611328125 751.975585938 624.184570312 c 1
 751.943359375 601.876953125 735.958984375 581.436523438 713.403320312 576.9296875 c 0
 710.102539062 576.270507812 706.80078125 575.96875 703.541015625 576.001953125 c 0
 700.278320312 575.967773438 696.97265625 576.26953125 693.666992188 576.9296875 c 0
 671.111328125 581.435546875 655.126953125 601.877929688 655.094726562 624.185546875 c 1
 645.889648438 673.48046875 608 892.067382812 608 1152 c 0
 608 1205 651 1248 704 1248 c 0
 757 1248 800 1205 800 1152 c 0
 800 1147.36523438 799.670898438 1142.80761719 799.03515625 1138.34765625 c 0
415.03515625 1138.34765625 m 0
 413.749023438 884.44140625 377.01953125 672.611328125 367.975585938 624.184570312 c 1
 367.943359375 601.876953125 351.958984375 581.436523438 329.403320312 576.9296875 c 0
 326.102539062 576.270507812 322.80078125 575.96875 319.541015625 576.001953125 c 0
 316.278320312 575.967773438 312.97265625 576.26953125 309.666992188 576.9296875 c 0
 287.111328125 581.435546875 271.126953125 601.877929688 271.094726562 624.185546875 c 1
 261.889648438 673.48046875 224 892.067382812 224 1152 c 0
 224 1205 267 1248 320 1248 c 0
 373 1248 416 1205 416 1152 c 0
 416 1147.36523438 415.670898438 1142.80761719 415.03515625 1138.34765625 c 0
EndSplineSet
EndChar

StartChar: quotesingle
Encoding: 39 39 36
Width: 1024
VWidth: 0
Flags: HW
LayerCount: 2
Fore
SplineSet
656.000000134 1103.99859807 m 2
 656.015478428 851.665197131 557.887685974 609.479469171 556.280273438 605.45703125 c 0
 555.481445312 603.633789062 554.591796875 601.88671875 553.620117188 600.217773438 c 0
 548.41015625 591.025390625 540.18359375 583.572265625 529.813476562 579.427734375 c 0
 524.002929688 577.10546875 517.96484375 575.999023438 512 576.013671875 c 0
 506.03515625 575.999023438 499.997070312 577.10546875 494.186523438 579.427734375 c 0
 483.810546875 583.57421875 475.581054688 591.032226562 470.372070312 600.231445312 c 0
 469.403320312 601.896484375 468.516601562 603.638671875 467.719726562 605.45703125 c 0
 466.112304688 609.479492188 367.983398438 851.66796875 368.000000015 1104.00292969 c 2
 368.000004189 1104.02557166 l 2
 368.014028998 1183.01402616 433.008525968 1248 512 1248 c 0
 590.999023435 1248 655.998392993 1183.001607 655.999999985 1104.00292969 c 2
 656.000000134 1103.99859807 l 2
EndSplineSet
EndChar

StartChar: asterisk
Encoding: 42 42 37
Width: 1024
VWidth: 0
Flags: HW
LayerCount: 2
Fore
SplineSet
285.430664062 614.37109375 m 0
 283.66796875 612.109375 282.043945312 609.704101562 280.57421875 607.159179688 c 0
 263.07421875 576.848632812 273.689453125 537.233398438 304 519.733398438 c 0
 334.310546875 502.233398438 373.92578125 512.848632812 391.42578125 543.159179688 c 0
 437.951171875 623.744140625 471.880859375 705.657226562 481.965820312 730.875 c 0
 493.509765625 750.904296875 489.047851562 777.553710938 470.572265625 792.413085938 c 0
 468.557617188 794.033203125 466.444335938 795.466796875 464.255859375 796.713867188 c 0
 462.076171875 797.991210938 459.770507812 799.108398438 457.350585938 800.045898438 c 0
 435.245117188 808.6171875 409.93359375 799.15625 398.361328125 779.141601562 c 0
 382.084960938 758.462890625 330.9140625 691.791992188 285.430664062 614.37109375 c 0
628.756835938 1209.02929688 m 0
 629.833984375 1211.68652344 631.10546875 1214.296875 632.57421875 1216.84082031 c 0
 650.07421875 1247.15136719 689.689453125 1257.76660156 720 1240.26660156 c 0
 750.310546875 1222.76660156 760.92578125 1183.15136719 743.42578125 1152.84082031 c 0
 696.899414062 1072.25585938 642.92578125 1001.91503906 626.12890625 980.573242188 c 0
 614.5546875 960.560546875 589.245117188 951.100585938 567.138671875 959.670898438 c 0
 564.728515625 960.60546875 562.4296875 961.71875 560.255859375 962.990234375 c 0
 558.059570312 964.239257812 555.939453125 965.677734375 553.916992188 967.3046875 c 0
 535.44140625 982.163085938 530.979492188 1008.81445312 542.526367188 1028.84375 c 0
 552.296875 1053.27832031 584.450195312 1130.92871094 628.756835938 1209.02929688 c 0
395.243164062 1209.02929688 m 0
 394.166015625 1211.68652344 392.89453125 1214.29589844 391.42578125 1216.84082031 c 0
 373.92578125 1247.15136719 334.310546875 1257.76660156 304 1240.26660156 c 0
 273.689453125 1222.76660156 263.07421875 1183.15136719 280.57421875 1152.84082031 c 0
 327.100585938 1072.25585938 381.07421875 1001.91601562 397.87109375 980.573242188 c 0
 409.4453125 960.560546875 434.754882812 951.100585938 456.861328125 959.670898438 c 0
 459.271484375 960.60546875 461.5703125 961.71875 463.744140625 962.990234375 c 0
 465.940429688 964.239257812 468.060546875 965.677734375 470.08203125 967.3046875 c 0
 488.55859375 982.163085938 493.020507812 1008.81445312 481.473632812 1028.84277344 c 0
 471.703125 1053.27832031 439.549804688 1130.92871094 395.243164062 1209.02929688 c 0
738.569335938 614.37109375 m 0
 740.33203125 612.109375 741.95703125 609.703125 743.42578125 607.159179688 c 0
 760.92578125 576.848632812 750.310546875 537.233398438 720 519.733398438 c 0
 689.689453125 502.233398438 650.07421875 512.848632812 632.57421875 543.159179688 c 0
 586.048828125 623.744140625 552.118164062 705.657226562 542.034179688 730.875 c 0
 530.490234375 750.904296875 534.952148438 777.553710938 553.427734375 792.413085938 c 0
 555.442382812 794.033203125 557.555664062 795.466796875 559.744140625 796.713867188 c 0
 561.923828125 797.991210938 564.229492188 799.108398438 566.649414062 800.046875 c 0
 588.754882812 808.6171875 614.06640625 799.15625 625.639648438 779.141601562 c 0
 641.915039062 758.462890625 693.0859375 691.791992188 738.569335938 614.37109375 c 0
855.326171875 816.599609375 m 0
 858.166015625 816.204101562 861.061523438 816 864 816 c 0
 899 816 928 845 928 880 c 0
 928 915 899 944 864 944 c 0
 770.948242188 944 683.044921875 932.427734375 656.163085938 928.551757812 c 0
 633.044921875 928.53515625 612.197265625 911.345703125 608.56640625 887.916015625 c 0
 608.170898438 885.361328125 607.985351562 882.814453125 608 880.295898438 c 0
 607.983398438 877.76953125 608.168945312 875.213867188 608.56640625 872.649414062 c 0
 612.196289062 849.219726562 633.045898438 832.030273438 656.165039062 832.014648438 c 0
 682.211914062 828.258789062 765.536132812 817.279296875 855.326171875 816.599609375 c 0
168.673828125 816.599609375 m 0
 165.833984375 816.204101562 162.938476562 816 160 816 c 0
 125 816 96 845 96 880 c 0
 96 915 125 944 160 944 c 0
 253.051757812 944 340.955078125 932.427734375 367.836914062 928.551757812 c 0
 390.955078125 928.53515625 411.802734375 911.345703125 415.43359375 887.916015625 c 0
 415.829101562 885.361328125 416.014648438 882.814453125 416 880.295898438 c 0
 416.016601562 877.76953125 415.831054688 875.213867188 415.43359375 872.649414062 c 0
 411.803710938 849.219726562 390.954101562 832.030273438 367.834960938 832.014648438 c 0
 341.788085938 828.258789062 258.463867188 817.279296875 168.673828125 816.599609375 c 0
EndSplineSet
EndChar

StartChar: parenleft
Encoding: 40 40 38
Width: 1024
VWidth: 0
Flags: HW
LayerCount: 2
Fore
SplineSet
758.387695312 1420.81640625 m 4
 774.446289062 1399.42382812 768.651367188 1369.50976562 749.514648438 1354.13964844 c 4
 743.737304688 1349.77148438 384 1073.44628906 384 624 c 4
 384 173.794921875 744.530273438 -102.375 749.498046875 -106.126953125 c 4
 770.423828125 -122.918945312 773.734375 -152.354492188 758.400390625 -172.799804688 c 4
 743.06640625 -193.245117188 713.943359375 -198.353515625 691.829101562 -182.872070312 c 4
 687.891601562 -179.918945312 288 117.245117188 288 624 c 4
 288 1129.953125 687.015625 1427.25878906 691.811523438 1430.859375 c 4
 712.046875 1445.03808594 742.328125 1442.20996094 758.387695312 1420.81640625 c 4
EndSplineSet
EndChar

StartChar: parenright
Encoding: 41 41 39
Width: 1024
VWidth: 0
Flags: HW
LayerCount: 2
Fore
SplineSet
265.612304688 1420.81640625 m 0
 249.553710938 1399.42382812 255.348632812 1369.50976562 274.485351562 1354.13964844 c 0
 280.262695312 1349.77148438 640 1073.44628906 640 624 c 0
 640 173.794921875 279.469726562 -102.375 274.501953125 -106.126953125 c 0
 253.576171875 -122.918945312 250.265625 -152.354492188 265.599609375 -172.799804688 c 0
 280.93359375 -193.245117188 310.056640625 -198.353515625 332.170898438 -182.872070312 c 0
 336.108398438 -179.918945312 736 117.245117188 736 624 c 0
 736 1129.953125 336.984375 1427.25878906 332.188476562 1430.859375 c 0
 311.953125 1445.03808594 281.671875 1442.20996094 265.612304688 1420.81640625 c 0
EndSplineSet
EndChar

StartChar: E
Encoding: 69 69 40
Width: 1024
VWidth: 0
Flags: HW
LayerCount: 2
Fore
SplineSet
608 912 m 4
 634.144471708 912 656 890.146366075 656 864 c 6
 656 480 l 6
 656 453.855528292 634.146366075 432 608 432 c 4
 581.853633925 432 560 453.855528292 560 480 c 6
 560 864 l 6
 560 890.146366075 581.855528292 912 608 912 c 4
272 672 m 4
 272 698.144471708 293.853633925 720 320 720 c 6
 592 720 l 6
 618.144471708 720 640 698.146366075 640 672 c 4
 640 645.853633925 618.144471708 624 592 624 c 6
 320 624 l 6
 293.853633925 624 272 645.855528292 272 672 c 4
304 1232 m 4
 330.144471708 1232 352 1210.14636608 352 1184 c 6
 352 64 l 6
 352 37.8555282921 330.146366075 16 304 16 c 4
 277.853633925 16 256 37.8555282921 256 64 c 6
 256 1184 l 6
 256 1210.14636608 277.855528292 1232 304 1232 c 4
48 48 m 4
 48 74.1444717079 69.8536339246 96 96 96 c 6
 832 96 l 5
 832 384 l 6
 832 410.144471708 853.853633925 432 880 432 c 4
 906.146366075 432 928 410.144471708 928 384 c 6
 928 48 l 6
 928 27.3985836813 909.054472683 -3.55802918541e-15 880 0 c 6
 96 0 l 6
 69.8536339246 0 48 21.8555282921 48 48 c 4
48 1200 m 4
 48 1226.14447171 69.8536339246 1248 96 1248 c 6
 864 1248 l 6
 893.054472683 1248 912 1220.60141632 912 1200 c 6
 912 864 l 6
 912 837.855528292 890.146366075 816 864 816 c 4
 837.853633925 816 816 837.855528292 816 864 c 6
 816 1152 l 5
 96 1152 l 6
 69.8536339246 1152 48 1173.85552829 48 1200 c 4
EndSplineSet
EndChar

StartChar: F
Encoding: 70 70 41
Width: 1024
VWidth: 0
Flags: HW
LayerCount: 2
Fore
SplineSet
48 48 m 0
 48 74.14453125 69.853515625 96 96 96 c 2
 512 96 l 2
 538.14453125 96 560 74.146484375 560 48 c 0
 560 21.853515625 538.14453125 0 512 0 c 2
 96 0 l 2
 69.853515625 0 48 21.85546875 48 48 c 0
608 912 m 0
 634.144471708 912 656 890.146366075 656 864 c 2
 656 480 l 2
 656 453.855528292 634.146366075 432 608 432 c 0
 581.853633925 432 560 453.855528292 560 480 c 2
 560 864 l 2
 560 890.146366075 581.855528292 912 608 912 c 0
272 672 m 0
 272 698.144471708 293.853633925 720 320 720 c 2
 592 720 l 2
 618.144471708 720 640 698.146366075 640 672 c 0
 640 645.853633925 618.144471708 624 592 624 c 2
 320 624 l 2
 293.853633925 624 272 645.855528292 272 672 c 0
304 1232 m 0
 330.144471708 1232 352 1210.14636608 352 1184 c 2
 352 64 l 2
 352 37.8555282921 330.146366075 16 304 16 c 0
 277.853633925 16 256 37.8555282921 256 64 c 2
 256 1184 l 2
 256 1210.14636608 277.855528292 1232 304 1232 c 0
48 1200 m 0
 48 1226.14447171 69.8536339246 1248 96 1248 c 2
 880 1248 l 2
 909.0546875 1248 928 1220.6015625 928 1200 c 2
 928 864 l 2
 928 837.85546875 906.146484375 816 880 816 c 0
 853.853515625 816 832 837.85546875 832 864 c 2
 832 1152 l 1
 96 1152 l 2
 69.8536339246 1152 48 1173.85552829 48 1200 c 0
EndSplineSet
EndChar

StartChar: K
Encoding: 75 75 42
Width: 1024
VWidth: 0
Flags: HW
LayerCount: 2
Fore
SplineSet
471 761 m 6
 849.835625782 87.5325395024 l 6
 862.653994822 64.7449401918 854.319421474 34.9819953271 831.532539502 22.164374218 c 4
 808.745657531 9.34675310895 778.982924062 17.6789274417 766.164374218 40.4674604976 c 6
 428.927320748 640 l 4
 387.329101562 713.934570312 l 6
 471 761 l 6
240 568.646484375 m 5
 746.241210938 1213.63574219 l 6
 762.384765625 1234.20410156 793.0703125 1237.90039062 813.635742188 1221.75878906 c 4
 834.202148438 1205.61621094 837.901367188 1174.93164062 821.758789062 1154.36425781 c 6
 281.758789062 466.364257812 l 6
 240 568.646484375 l 5
542 1200 m 4
 542 1226.14453125 563.853515625 1248 590 1248 c 6
 910 1248 l 6
 936.14453125 1248 958 1226.14648438 958 1200 c 4
 958 1173.85351562 936.14453125 1152 910 1152 c 6
 590 1152 l 6
 563.853515625 1152 542 1173.85546875 542 1200 c 4
46 1200 m 4
 46 1226.14447171 67.8536339246 1248 94 1248 c 6
 414 1248 l 6
 440.144471708 1248 462 1226.14636608 462 1200 c 4
 462 1173.85363392 440.144471708 1152 414 1152 c 6
 94 1152 l 6
 67.8536339246 1152 46 1173.85552829 46 1200 c 4
574 48 m 4
 574 74.14453125 595.853515625 96 622 96 c 6
 942 96 l 6
 968.14453125 96 990 74.146484375 990 48 c 4
 990 21.853515625 968.14453125 0 942 0 c 6
 622 0 l 6
 595.853515625 0 574 21.85546875 574 48 c 4
47 48 m 4
 47 74.1444717079 68.8536339246 96 95 96 c 6
 414 96 l 6
 440.144471708 96 462 74.1463660754 462 48 c 4
 462 21.8536339246 440.144471708 0 414 0 c 6
 95 0 l 6
 68.8536339246 0 47 21.8555282921 47 48 c 4
256 15 m 4
 229.855528292 15 208 36.8536339246 208 63 c 6
 208 1184 l 6
 208 1210.14447171 229.853633925 1232 256 1232 c 4
 282.146366075 1232 304 1210.14447171 304 1184 c 6
 304 63 l 6
 304 36.8536339246 282.144471708 15 256 15 c 4
EndSplineSet
EndChar

StartChar: L
Encoding: 76 76 43
Width: 1024
VWidth: 0
Flags: HW
LayerCount: 2
Fore
SplineSet
48 1200 m 0
 48 1226.14453125 69.853515625 1248 96 1248 c 2
 544 1248 l 2
 570.14453125 1248 592 1226.14648438 592 1200 c 0
 592 1173.85351562 570.14453125 1152 544 1152 c 2
 96 1152 l 2
 69.853515625 1152 48 1173.85546875 48 1200 c 0
304 1232 m 0
 330.144471708 1232 352 1210.14636608 352 1184 c 2
 352 64 l 2
 352 37.8555282921 330.146366075 16 304 16 c 0
 277.853633925 16 256 37.8555282921 256 64 c 2
 256 1184 l 2
 256 1210.14636608 277.855528292 1232 304 1232 c 0
48 48 m 0
 48 74.1444717079 69.8536339246 96 96 96 c 2
 832 96 l 1
 832 432 l 2
 832 458.14453125 853.853515625 480 880 480 c 0
 906.146484375 480 928 458.14453125 928 432 c 2
 928 48 l 2
 928 27.3985836813 909.054472683 -3.55802918541e-15 880 0 c 2
 96 0 l 2
 69.8536339246 0 48 21.8555282921 48 48 c 0
EndSplineSet
EndChar

StartChar: X
Encoding: 88 88 44
Width: 1024
VWidth: 0
Flags: HW
LayerCount: 2
Fore
SplineSet
809.7109375 1226.80957031 m 0
 833.028320312 1214.984375 842.635742188 1185.60839844 830.809570312 1162.2890625 c 2
 262.809570312 42.2890625 l 2
 250.984375 18.9716796875 221.608398438 9.3642578125 198.2890625 21.1904296875 c 0
 174.970703125 33.0166015625 165.365234375 62.3935546875 177.190429688 85.7109375 c 2
 745.190429688 1205.7109375 l 2
 757.016601562 1229.02929688 786.393554688 1238.63476562 809.7109375 1226.80957031 c 0
214.289470195 1226.80949539 m 0
 237.60679605 1238.63471065 266.983423308 1229.02954518 278.80949539 1205.71052981 c 2
 846.80949539 85.7105298051 l 2
 858.634710646 62.3932039496 849.02954518 33.0165766924 825.710529805 21.1905046096 c 0
 802.391514431 9.36443252679 773.015719865 18.9721443393 761.19050461 42.2894701949 c 2
 193.19050461 1162.28947019 l 2
 181.364432527 1185.60848557 190.972144339 1214.98428014 214.289470195 1226.80949539 c 0
558 1200 m 0
 558 1226.14447171 579.853633925 1248 606 1248 c 2
 926 1248 l 2
 952.144471708 1248 974 1226.14636608 974 1200 c 0
 974 1173.85363392 952.144471708 1152 926 1152 c 2
 606 1152 l 2
 579.853633925 1152 558 1173.85552829 558 1200 c 0
46 1200 m 0
 46 1226.14447171 67.8536339246 1248 94 1248 c 2
 414 1248 l 2
 440.144471708 1248 462 1226.14636608 462 1200 c 0
 462 1173.85363392 440.144471708 1152 414 1152 c 2
 94 1152 l 2
 67.8536339246 1152 46 1173.85552829 46 1200 c 0
574 48 m 0
 574 74.14453125 595.853515625 96 622 96 c 2
 942 96 l 2
 968.14453125 96 990 74.146484375 990 48 c 0
 990 21.853515625 968.14453125 0 942 0 c 2
 622 0 l 2
 595.853515625 0 574 21.85546875 574 48 c 0
31 48 m 0
 31 74.14453125 52.853515625 96 79 96 c 2
 398 96 l 2
 424.14453125 96 446 74.146484375 446 48 c 0
 446 21.853515625 424.14453125 0 398 0 c 2
 79 0 l 2
 52.853515625 0 31 21.85546875 31 48 c 0
EndSplineSet
EndChar

StartChar: M
Encoding: 77 77 45
Width: 1024
VWidth: 0
Flags: HW
LayerCount: 2
Fore
SplineSet
32 1200 m 0
 32 1226.14447171 53.8536339246 1248 80 1248 c 2
 272 1248 l 2
 293.355471776 1248 312.054735973 1232.75016918 317.815038946 1214.31719967 c 2
 512 592.925324297 l 1
 706.184961054 1214.31719967 l 2
 712.554764252 1234.7005699 732.687945336 1248 752 1248 c 2
 944 1248 l 2
 970.144471708 1248 992 1226.14636608 992 1200 c 0
 992 1173.85363392 970.144471708 1152 944 1152 c 2
 787.289163843 1152 l 1
 557.815038946 417.682800329 l 2
 554.077953775 405.724127782 543.501440985 392.917512663 529.867581212 387.449472039 c 0
 504.259218037 377.178897711 474.414718716 391.347575812 466.184961054 417.682800329 c 2
 236.710836157 1152 l 1
 80 1152 l 2
 53.8536339246 1152 32 1173.85552829 32 1200 c 0
816 1232 m 0
 842.144471708 1232 864 1210.14636608 864 1184 c 2
 864 64 l 2
 864 37.8555282921 842.146366075 16 816 16 c 0
 789.853633925 16 768 37.8555282921 768 64 c 2
 768 1184 l 2
 768 1210.14636608 789.855528292 1232 816 1232 c 0
208 16 m 0
 181.855528292 16 160 37.8536339246 160 64 c 2
 160 1184 l 2
 160 1210.14447171 181.853633925 1232 208 1232 c 0
 234.146366075 1232 256 1210.14447171 256 1184 c 2
 256 64 l 2
 256 37.8536339246 234.144471708 16 208 16 c 0
607 48 m 4
 607 74.14453125 628.853515625 96 655 96 c 6
 942 96 l 6
 968.14453125 96 990 74.146484375 990 48 c 4
 990 21.853515625 968.14453125 0 942 0 c 6
 655 0 l 6
 628.853515625 0 607 21.85546875 607 48 c 4
31 48 m 4
 31 74.14453125 52.853515625 96 79 96 c 6
 366 96 l 6
 392.14453125 96 414 74.146484375 414 48 c 4
 414 21.853515625 392.14453125 0 366 0 c 6
 79 0 l 6
 52.853515625 0 31 21.85546875 31 48 c 4
EndSplineSet
EndChar

StartChar: N
Encoding: 78 78 46
Width: 1024
VWidth: 0
Flags: HW
LayerCount: 2
Fore
SplineSet
256 16 m 0
 229.855528292 16 208 37.8536339246 208 64 c 2
 208 1184 l 2
 208 1210.14447171 229.853633925 1232 256 1232 c 0
 282.146366075 1232 304 1210.14447171 304 1184 c 2
 304 64 l 2
 304 37.8536339246 282.144471708 16 256 16 c 0
768 1232 m 0
 794.144471708 1232 816 1210.14636608 816 1184 c 2
 816 48 l 2
 816 20.4088245711 791.740185307 -2.0167628214 764.234059899 0.147960386691 c 0
 744.682227105 1.68668332862 728.439833115 17.7424168493 723.475893983 30.066679521 c 2
 271.586084346 1152 l 1
 96 1152 l 2
 69.8555282921 1152 48 1173.85363392 48 1200 c 0
 48 1226.14636608 69.8555282921 1248 96 1248 c 2
 304 1248 l 2
 322.116170691 1248 341.106862879 1236.34854482 348.524106017 1217.93332048 c 2
 720 295.648342314 l 1
 720 1184 l 2
 720 1210.14636608 741.855528292 1232 768 1232 c 0
976 1200 m 0
 976 1173.85552829 954.146366075 1152 928 1152 c 2
 608 1152 l 2
 581.855528292 1152 560 1173.85363392 560 1200 c 0
 560 1226.14636608 581.855528292 1248 608 1248 c 2
 928 1248 l 2
 954.146366075 1248 976 1226.14447171 976 1200 c 0
48 48 m 0
 48 74.1444717079 69.8536339246 96 96 96 c 2
 416 96 l 2
 442.144471708 96 464 74.1463660754 464 48 c 0
 464 21.8536339246 442.144471708 0 416 0 c 2
 96 0 l 2
 69.8536339246 0 48 21.8555282921 48 48 c 0
EndSplineSet
EndChar

StartChar: W
Encoding: 87 87 47
Width: 1024
VWidth: 0
Flags: HW
LayerCount: 2
Fore
SplineSet
189.300056029 1231.92400549 m 4
 215.403135315 1233.39460151 238.453302921 1212.80491463 239.924005494 1186.69994397 c 6
 297.905377998 157.530582021 l 5
 465.433159993 827.641710002 l 6
 472.125002971 854.409081914 501.099484105 870.281228015 527.259322882 861.509922711 c 4
 543.006606682 856.22991181 554.94449982 842.131070751 558.566840007 827.641710002 c 6
 726.094622002 157.530582021 l 5
 784.075994506 1186.69994397 l 6
 785.546590523 1212.80302326 808.594973317 1233.39470807 834.699943971 1231.92400549 c 4
 860.804914626 1230.45330292 881.39460151 1207.40313532 879.924005494 1181.30005603 c 6
 815.924005494 45.3000560285 l 6
 814.642881202 22.5600998569 794.326269372 0 768 0 c 6
 740 0 l 5
 704 0 l 6
 684.49112936 0 662.951519727 14.284851061 657.433159993 36.3582899983 c 6
 512 618.09092997 l 5
 366.566840007 36.3582899983 l 6
 361.835243872 17.4319054602 342.752780065 0 320 0 c 6
 283 0 l 5
 256 0 l 6
 233.22398441 0 209.556816429 19.0154669038 208.075994506 45.3000560285 c 6
 144.075994506 1181.30005603 l 6
 142.605291934 1207.40502668 163.196976742 1230.45340948 189.300056029 1231.92400549 c 4
607 1200 m 4
 607 1226.14453125 628.853515625 1248 655 1248 c 6
 942 1248 l 6
 968.14453125 1248 990 1226.14648438 990 1200 c 4
 990 1173.85351562 968.14453125 1152 942 1152 c 6
 655 1152 l 6
 628.853515625 1152 607 1173.85546875 607 1200 c 4
31 1200 m 4
 31 1226.14453125 52.853515625 1248 79 1248 c 6
 366 1248 l 6
 392.14453125 1248 414 1226.14648438 414 1200 c 4
 414 1173.85351562 392.14453125 1152 366 1152 c 6
 79 1152 l 6
 52.853515625 1152 31 1173.85546875 31 1200 c 4
EndSplineSet
EndChar

StartChar: Z
Encoding: 90 90 48
Width: 1024
VWidth: 0
Flags: HW
LayerCount: 2
Fore
SplineSet
160 816 m 4
 133.855528292 816 112 837.853633925 112 864 c 6
 112 1200 l 6
 112 1229.05447268 139.398583681 1248 160 1248 c 6
 864 1248 l 6
 891.591175429 1248 914.016762821 1223.74018531 911.852039613 1196.2340599 c 4
 911.229389073 1188.32233068 906.129403774 1176.78685378 904.449420471 1174.1573147 c 6
 215.626691635 96 l 5
 848 96 l 5
 848 432 l 6
 848 458.144471708 869.853633925 480 896 480 c 4
 922.146366075 480 944 458.144471708 944 432 c 6
 944 48 l 6
 944 27.3985836813 925.054472683 0 896 0 c 6
 128 0 l 6
 121.439361805 0 112.336238768 1.95374428384 105.410518623 5.64772342475 c 4
 81.0657458561 18.6325222482 72.6957865355 50.5917049632 87.550579529 73.8426853009 c 6
 776.373308365 1152 l 5
 208 1152 l 5
 208 864 l 6
 208 837.853633925 186.144471708 816 160 816 c 4
EndSplineSet
EndChar

StartChar: A
Encoding: 65 65 49
Width: 1024
VWidth: 0
Flags: HW
LayerCount: 2
Fore
SplineSet
288 528 m 0
 288 554.144471708 309.853633925 576 336 576 c 2
 688 576 l 2
 714.144471708 576 736 554.146366075 736 528 c 0
 736 501.853633925 714.144471708 480 688 480 c 2
 336 480 l 2
 309.853633925 480 288 501.855528292 288 528 c 0
827.177033542 17.3194481481 m 0
 801.751234225 11.231580706 775.407756703 27.3953248472 769.319448148 52.822966458 c 2
 512 1127.51007343 l 1
 254.680551852 52.822966458 l 2
 248.59268441 27.3971671413 222.250608069 11.2311395934 196.822966458 17.3194481481 c 0
 171.395324847 23.4077567028 155.231580706 49.7512342253 161.319448148 75.177033542 c 2
 433.319448148 1211.17703354 l 2
 438.009309586 1230.7641019 457.261860065 1248 480 1248 c 2
 512 1248 l 1
 544 1248 l 2
 564.140706223 1248 585.385865337 1233.29013605 590.680551852 1211.17703354 c 2
 862.680551852 75.177033542 l 2
 868.768860407 49.7493919312 852.602832859 23.4073155901 827.177033542 17.3194481481 c 0
16 48 m 0
 16 74.1444717079 37.8536339246 96 64 96 c 2
 384 96 l 2
 410.144471708 96 432 74.1463660754 432 48 c 0
 432 21.8536339246 410.144471708 0 384 0 c 2
 64 0 l 2
 37.8536339246 0 16 21.8555282921 16 48 c 0
1008 48 m 0
 1008 21.8555282921 986.146366075 0 960 0 c 2
 640 0 l 2
 613.855528292 0 592 21.8536339246 592 48 c 0
 592 74.1463660754 613.855528292 96 640 96 c 2
 960 96 l 2
 986.146366075 96 1008 74.1444717079 1008 48 c 0
EndSplineSet
EndChar

StartChar: T
Encoding: 84 84 50
Width: 1024
VWidth: 0
Flags: HW
LayerCount: 2
Fore
SplineSet
144 768 m 0
 117.855528292 768 96 789.853633925 96 816 c 2
 96 1200 l 2
 96 1229.05447268 123.398583681 1248 144 1248 c 2
 880 1248 l 2
 909.054472683 1248 928 1220.60141632 928 1200 c 2
 928 816 l 2
 928 789.855528292 906.146366075 768 880 768 c 0
 853.853633925 768 832 789.855528292 832 816 c 2
 832 1152 l 1
 192 1152 l 1
 192 816 l 2
 192 789.853633925 170.144471708 768 144 768 c 0
224 48 m 0
 224 74.14453125 245.853515625 96 272 96 c 2
 752 96 l 6
 778.14453125 96 800 74.146484375 800 48 c 4
 800 21.853515625 778.14453125 0 752 0 c 6
 272 0 l 2
 245.853515625 0 224 21.85546875 224 48 c 0
512 1232 m 0
 538.144471708 1232 560 1210.14636608 560 1184 c 2
 560 64 l 2
 560 37.8555282921 538.146366075 16 512 16 c 0
 485.853633925 16 464 37.8555282921 464 64 c 2
 464 1184 l 2
 464 1210.14636608 485.855528292 1232 512 1232 c 0
EndSplineSet
EndChar

StartChar: bracketleft
Encoding: 91 91 51
Width: 1024
VWidth: 0
Flags: HW
LayerCount: 2
Fore
SplineSet
768 -144 m 0
 768 -170.144471708 746.146366075 -192 720 -192 c 2
 336 -192 l 2
 306.945527317 -192 288 -164.601416319 288 -144 c 2
 288 1392 l 2
 288 1421.05447268 315.398583681 1440 336 1440 c 2
 720 1440 l 2
 746.144471708 1440 768 1418.14636608 768 1392 c 0
 768 1365.85363392 746.144471708 1344 720 1344 c 2
 384 1344 l 1
 384 -96 l 1
 720 -96 l 2
 746.146366075 -96 768 -117.855528292 768 -144 c 0
EndSplineSet
EndChar

StartChar: bracketright
Encoding: 93 93 52
Width: 1024
VWidth: 0
Flags: HW
LayerCount: 2
Fore
SplineSet
256 -144 m 0
 256 -170.14453125 277.853515625 -192 304 -192 c 2
 688 -192 l 2
 717.0546875 -192 736 -164.6015625 736 -144 c 2
 736 1392 l 2
 736 1421.0546875 708.6015625 1440 688 1440 c 2
 304 1440 l 2
 277.85546875 1440 256 1418.14648438 256 1392 c 0
 256 1365.85351562 277.85546875 1344 304 1344 c 2
 640 1344 l 1
 640 -96 l 1
 304 -96 l 2
 277.853515625 -96 256 -117.85546875 256 -144 c 0
EndSplineSet
EndChar

StartChar: numbersign
Encoding: 35 35 53
Width: 1024
VWidth: 0
Flags: HW
LayerCount: 2
Fore
SplineSet
775.891151391 1439.34690834 m 0
 801.679899425 1435.04878367 819.645344448 1409.89946524 815.346908344 1384.10884861 c 2
 559.346908344 -151.891151391 l 2
 555.048783672 -177.679899425 529.899465236 -195.645344448 504.108848609 -191.346908344 c 0
 478.318231982 -187.048472239 460.354966984 -161.897596644 464.653091656 -136.108848609 c 2
 720.653091656 1399.89115139 l 2
 724.951527761 1425.68176802 750.102403356 1443.64503302 775.891151391 1439.34690834 c 0
248.108848609 -191.346908344 m 0
 222.320100575 -187.048783672 204.354655552 -161.899465236 208.653091656 -136.108848609 c 2
 464.653091656 1399.89115139 l 2
 468.951216328 1425.67989943 494.100534764 1443.64534445 519.891151391 1439.34690834 c 0
 545.681768018 1435.04847224 563.645033016 1409.89759664 559.346908344 1384.10884861 c 2
 303.346908344 -151.891151391 l 2
 299.048472239 -177.681768018 273.897596644 -195.645033016 248.108848609 -191.346908344 c 0
96 768 m 0
 96 794.14453125 117.853515625 816 144 816 c 2
 880 816 l 2
 906.14453125 816 928 794.146484375 928 768 c 0
 928 741.853515625 906.14453125 720 880 720 c 2
 144 720 l 2
 117.853515625 720 96 741.85546875 96 768 c 0
96 480 m 0
 96 506.14453125 117.853515625 528 144 528 c 2
 880 528 l 2
 906.14453125 528 928 506.146484375 928 480 c 0
 928 453.853515625 906.14453125 432 880 432 c 2
 144 432 l 2
 117.853515625 432 96 453.85546875 96 480 c 0
EndSplineSet
EndChar

StartChar: percent
Encoding: 37 37 54
Width: 1024
VWidth: 0
Flags: HW
LayerCount: 2
Fore
SplineSet
294.000053075 1205.92861961 m 0
 294.000053075 1232.07306241 315.782282443 1253.96106489 341.928619608 1253.99994693 c 0
 650.13248033 1254.45827478 862.659028619 1426.73671781 866.111837311 1429.56502421 c 0
 887.279715999 1445.93805045 916.697830768 1442.2862383 932.986560066 1422.59402514 c 0
 949.276081362 1402.9008545 947.42658497 1373.39170012 927.199259671 1355.51406876 c 0
 922.377368135 1351.525564 690.306441766 1158.51791105 342.071380392 1158.00005307 c 0
 315.925043228 1157.96117104 294.000053075 1179.78417681 294.000053075 1205.92861961 c 0
636.861328125 272 m 0
 591.280273438 193.051757812 612.567382812 119.749023438 648 99.2919921875 c 512
 683.432617188 78.8349609375 757.557617188 97.0517578125 803.138671875 176 c 512
 848.719726562 254.948242188 827.432617188 328.250976562 792 348.708007812 c 512
 756.567382812 369.165039062 682.442382812 350.948242188 636.861328125 272 c 0
553.72265625 320 m 0
 614.141601562 424.6484375 738.600585938 490.388671875 840 431.845703125 c 512
 941.399414062 373.302734375 946.696289062 232.6484375 886.27734375 128 c 512
 825.858398438 23.3515625 701.399414062 -42.388671875 600 16.154296875 c 512
 498.600585938 74.697265625 493.303710938 215.3515625 553.72265625 320 c 0
220.861328125 1072 m 0
 175.280273438 993.051757812 196.567382812 919.749023438 232 899.291992188 c 512
 267.432617188 878.834960938 341.557617188 897.051757812 387.138671875 976 c 512
 432.719726562 1054.94824219 411.432617188 1128.25097656 376 1148.70800781 c 512
 340.567382812 1169.16503906 266.442382812 1150.94824219 220.861328125 1072 c 0
137.72265625 1120 m 0
 198.141601562 1224.6484375 322.600585938 1290.38867188 424 1231.84570312 c 512
 525.399414062 1173.30273438 530.696289062 1032.6484375 470.27734375 928 c 512
 409.858398438 823.3515625 285.399414062 757.611328125 184 816.154296875 c 512
 82.6005859375 874.697265625 77.3037109375 1015.3515625 137.72265625 1120 c 0
106.533747416 -186.932505168 m 512
 83.1494210261 -175.240341973 73.3744844502 -145.91976818 85.067494832 -122.533747416 c 514
 853.067494832 1413.46625258 l 514
 864.759658027 1436.85057897 894.08023182 1446.62551555 917.466252584 1434.93250517 c 512
 940.852273348 1423.23949479 950.624668363 1393.91807381 938.932505168 1370.53374742 c 514
 170.932505168 -165.466252584 l 514
 159.239494786 -188.852273348 129.918073806 -198.624668363 106.533747416 -186.932505168 c 512
EndSplineSet
EndChar

StartChar: three
Encoding: 51 51 55
Width: 1016
VWidth: 0
Flags: HW
LayerCount: 2
Fore
SplineSet
560 672 m 0
 560 645.85546875 538.146484375 624 512 624 c 2
 416 624 l 2
 389.85546875 624 368 645.853515625 368 672 c 0
 368 698.146484375 389.85546875 720 416 720 c 2
 512 720 l 2
 538.146484375 720 560 698.14453125 560 672 c 0
96 288 m 0
 96 341 139 384 192 384 c 0
 245 384 288 341 288 288 c 0
 288 235 245 192 192 192 c 0
 139 192 96 235 96 288 c 0
152 992 m 0
 152 1045 195 1088 248 1088 c 0
 301 1088 344 1045 344 992 c 0
 344 939 301 896 248 896 c 0
 195 896 152 939 152 992 c 0
560 32 m 0
 560 5.85546875 538.146484375 -16 512 -16 c 0
 305.530273438 -16 96 76.294921875 96 240 c 0
 96 266.14453125 117.853515625 288 144 288 c 0
 170.146484375 288 192 266.14453125 192 240 c 0
 192 173.705078125 312.469726562 80 512 80 c 0
 538.146484375 80 560 58.14453125 560 32 c 0
200 992 m 0
 173.85546875 992 152 1013.85351562 152 1040 c 0
 152 1187.2734375 333.217773438 1264 512 1264 c 0
 538.14453125 1264 560 1242.14648438 560 1216 c 0
 560 1189.85351562 538.14453125 1168 512 1168 c 0
 339.782226562 1168 248 1090.7265625 248 1040 c 0
 248 1013.85351562 226.14453125 992 200 992 c 0
512 -16 m 0
 486 -16 464 6 464 32 c 0
 464 58 486 80 512 80 c 0
 694.28505262 80 832 207.231880583 832 352 c 0
 832 496.768192874 694.285109543 624 512 624 c 0
 486 624 464 646 464 672 c 0
 464 698 486 720 512 720 c 0
 663.116449403 720 776 826.13403844 776 944 c 0
 776 1061.86585313 663.116383555 1168 512 1168 c 0
 486 1168 464 1190 464 1216 c 0
 464 1242 486 1264 512 1264 c 0
 704.883616445 1264 872 1126.13414687 872 944 c 0
 872 829.464898405 805.913283259 732.435744715 708.890735649 676.188546949 c 1
 837.711335916 615.053217631 928 495.374360122 928 352 c 0
 928 142.768119417 735.71494738 -16 512 -16 c 0
EndSplineSet
EndChar

StartChar: four
Encoding: 52 52 56
Width: 1024
VWidth: 0
Flags: HW
LayerCount: 2
Fore
SplineSet
704 528 m 1
 944 528 l 2
 970.144471708 528 992 506.146366075 992 480 c 0
 992 453.853633925 970.144471708 432 944 432 c 2
 704 432 l 1
 704 64 l 2
 704 37.8536339246 682.144471708 16 656 16 c 0
 629.855528292 16 608 37.8536339246 608 64 c 2
 608 432 l 1
 112 432 l 2
 105.281269963 432 93.9128913433 434.59579328 86.1579276867 439.550187905 c 0
 62.9067222369 454.404628543 57.0694949337 486.921890978 73.7023684517 508.935988281 c 2
 617.702368452 1228.93598828 l 2
 624.640639678 1238.11899432 638.247321339 1246.75128779 652.234059899 1247.85203961 c 0
 679.740185307 1250.01676282 704 1227.59117543 704 1200 c 2
 704 528 l 1
608 528 m 1
 608 1056.8465582 l 1
 208.427044916 528 l 1
 608 528 l 1
336 48 m 0
 336 74 358 96 384 96 c 2
 928 96 l 2
 954 96 976 74 976 48 c 0
 976 22 954 0 928 0 c 2
 384 0 l 2
 358 0 336 22 336 48 c 0
EndSplineSet
EndChar

StartChar: seven
Encoding: 55 55 57
Width: 1024
VWidth: 0
Flags: HW
LayerCount: 2
Fore
SplineSet
144 768 m 0
 117.85546875 768 96 789.853515625 96 816 c 2
 96 1200 l 2
 96 1226.14453125 117.853515625 1248 144 1248 c 0
 170.146484375 1248 192 1226.14453125 192 1200 c 2
 192 816 l 2
 192 789.853515625 170.14453125 768 144 768 c 0
384 0 m 0
 357.855528292 0 336 21.8536339246 336 48 c 0
 336 583.071979196 583.896669955 693.590499617 733.379118753 849.247474817 c 0
 799.140142372 917.724993845 848 1084.35617402 848 1200 c 0
 848 1226.14447171 869.853633925 1248 896 1248 c 0
 922.146366075 1248 944 1226.14447171 944 1200 c 0
 944 1065.00562281 896.859857628 880.884381155 802.620881247 782.752525183 c 0
 633.927548795 607.091141008 432 547.65161446 432 48 c 0
 432 21.8536339246 410.144471708 0 384 0 c 0
144 768 m 0
 117.855528292 768 96 789.853633925 96 816 c 0
 96 1046.62743957 202.934513061 1264 384 1264 c 0
 562.493189022 1264 580.508904559 1120 672 1120 c 0
 774.400988398 1120 852.83779658 1222.12519083 857.238712889 1228.31649123 c 0
 873.091565695 1249.53884211 902.489646934 1253.98997031 923.452220222 1239.37480927 c 0
 944.416993787 1224.75811419 950.530511527 1195.83003999 935.823993114 1173.19204121 c 0
 934.295184676 1170.99926627 837.151333522 1024 672 1024 c 0
 493.491095441 1024 475.506810978 1168 384 1168 c 0
 295.065486939 1168 192 1035.37256043 192 816 c 0
 192 789.853633925 170.144471708 768 144 768 c 0
EndSplineSet
EndChar

StartChar: B
Encoding: 66 66 58
Width: 1024
VWidth: 0
Flags: HW
LayerCount: 2
Fore
SplineSet
520 672 m 4
 520 698.14453125 541.853515625 720 568 720 c 4
 766.537109375 720 928 558.537109375 928 360 c 4
 928 161.462890625 766.537109375 0 568 0 c 4
 541.85546875 0 520 21.853515625 520 48 c 4
 520 74.146484375 541.85546875 96 568 96 c 4
 713.462890625 96 832 214.537109375 832 360 c 4
 832 505.462890625 713.462890625 624 568 624 c 4
 541.853515625 624 520 645.85546875 520 672 c 4
520 1200 m 4
 520 1226.14453125 541.853515625 1248 568 1248 c 4
 740.041992188 1248 880 1108.04296875 880 936 c 4
 880 763.958007812 740.04296875 624 568 624 c 4
 541.85546875 624 520 645.853515625 520 672 c 4
 520 698.146484375 541.85546875 720 568 720 c 4
 686.95703125 720 784 817.041992188 784 936 c 4
 784 1054.95703125 686.958007812 1152 568 1152 c 4
 541.853515625 1152 520 1173.85546875 520 1200 c 4
272 672 m 4
 272 698.14453125 293.853515625 720 320 720 c 6
 568 720 l 6
 594.14453125 720 616 698.146484375 616 672 c 4
 616 645.853515625 594.14453125 624 568 624 c 6
 320 624 l 6
 293.853515625 624 272 645.85546875 272 672 c 4
48 48 m 4
 48 74.14453125 69.853515625 96 96 96 c 6
 568 96 l 6
 594.14453125 96 616 74.146484375 616 48 c 4
 616 21.853515625 594.14453125 0 568 0 c 6
 96 0 l 6
 69.853515625 0 48 21.85546875 48 48 c 4
48 1200 m 4
 48 1226.14447171 69.8536339246 1248 96 1248 c 6
 568 1248 l 6
 594.14453125 1248 616 1226.14648438 616 1200 c 4
 616 1173.85351562 594.14453125 1152 568 1152 c 6
 96 1152 l 6
 69.8536339246 1152 48 1173.85552829 48 1200 c 4
304 1232 m 4
 330.144471708 1232 352 1210.14636608 352 1184 c 6
 352 64 l 6
 352 37.8555282921 330.146366075 16 304 16 c 4
 277.853633925 16 256 37.8555282921 256 64 c 6
 256 1184 l 6
 256 1210.14636608 277.855528292 1232 304 1232 c 4
EndSplineSet
EndChar

StartChar: o
Encoding: 111 111 59
Width: 1024
VWidth: 0
Flags: HW
LayerCount: 2
Fore
SplineSet
192 432 m 0
 192 234.104941184 338.897683122 80 512 80 c 0
 685.102339826 80 832 234.104927161 832 432 c 0
 832 629.895058816 685.102316878 784 512 784 c 0
 338.897660174 784 192 629.895072839 192 432 c 0
96 432 m 0
 96 676.104927161 279.102339826 880 512 880 c 0
 744.897683122 880 928 676.104941184 928 432 c 0
 928 187.895072839 744.897660174 -16 512 -16 c 0
 279.102316878 -16 96 187.895058816 96 432 c 0
EndSplineSet
EndChar

StartChar: v
Encoding: 118 118 60
Width: 1024
VWidth: 0
Flags: HW
LayerCount: 2
Fore
SplineSet
191.673468081 845.138058836 m 0
 216.25910771 854.030737 244.24473633 840.913952966 253.138058836 816.326531919 c 2
 512 100.649400466 l 1
 770.861941164 816.326531919 l 2
 779.754619328 840.912171548 807.739110872 854.031381342 832.326531919 845.138058836 c 4
 856.913952966 836.24473633 870.030737 808.25910771 861.138058836 783.673468081 c 2
 589.138058836 31.6734680806 l 2
 583.419084181 15.8621852115 565.226278461 0 544 0 c 2
 512 0 l 1
 480 0 l 2
 463.186215861 0 442.081764348 11.7127804551 434.861941164 31.6734680806 c 2
 162.861941164 783.673468081 l 2
 153.968618658 808.260889128 167.087828452 836.245380672 191.673468081 845.138058836 c 0
1008 816 m 0
 1008 789.85546875 986.146484375 768 960 768 c 2
 640 768 l 2
 613.85546875 768 592 789.853515625 592 816 c 0
 592 842.146484375 613.85546875 864 640 864 c 2
 960 864 l 2
 986.146484375 864 1008 842.14453125 1008 816 c 0
16 816 m 0
 16 842.14453125 37.853515625 864 64 864 c 2
 384 864 l 2
 410.14453125 864 432 842.146484375 432 816 c 0
 432 789.853515625 410.14453125 768 384 768 c 2
 64 768 l 2
 37.853515625 768 16 789.85546875 16 816 c 0
EndSplineSet
EndChar

StartChar: z
Encoding: 122 122 61
Width: 1024
VWidth: 0
Flags: HW
LayerCount: 2
Fore
SplineSet
896 352 m 0
 922.144471708 352 944 330.146366075 944 304 c 2
 944 48 l 2
 944 18.9455273174 916.601416319 0 896 0 c 2
 128 0 l 2
 100.408824571 0 77.9832371786 24.2598146929 80.1479603867 51.7659401013 c 0
 81.0269062737 62.934294422 86.8205693007 74.4038085445 93.3445661545 81.2114574353 c 2
 751.516919446 768 l 1
 208 768 l 1
 208 592 l 2
 208 565.855528292 186.146366075 544 160 544 c 0
 133.853633925 544 112 565.855528292 112 592 c 2
 112 816 l 2
 112 836.601416319 130.945527317 864 160 864 c 2
 864 864 l 2
 874.978028995 864 885.863206709 860.128817823 894.390118516 853.154282345 c 0
 915.747000227 835.685551277 917.745916103 802.70904579 898.655433846 782.788542565 c 2
 240.483080554 96 l 1
 848 96 l 1
 848 304 l 2
 848 330.146366075 869.855528292 352 896 352 c 0
EndSplineSet
EndChar

StartChar: x
Encoding: 120 120 62
Width: 1024
VWidth: 0
Flags: HW
LayerCount: 2
Fore
SplineSet
830.084414951 837.402245615 m 0
 850.456538957 821.015971958 853.789706583 790.289185172 837.402245615 769.915585049 c 2
 245.402245615 33.9155850488 l 2
 229.015971958 13.5434610427 198.289185172 10.2102934167 177.915585049 26.597754385 c 0
 157.541984926 42.9852153533 154.211480728 73.7122909451 170.597754385 94.0844149512 c 2
 762.597754385 830.084414951 l 2
 778.985215353 850.458015074 809.712290945 853.788519272 830.084414951 837.402245615 c 0
193.915585049 837.402245615 m 0
 214.287709055 853.788519272 245.014784647 850.458015074 261.402245615 830.084414951 c 2
 853.402245615 94.0844149512 l 2
 869.788519272 73.7122909451 866.458015074 42.9852153533 846.084414951 26.597754385 c 0
 825.710814828 10.2102934167 794.984028042 13.5434610427 778.597754385 33.9155850488 c 2
 186.597754385 769.915585049 l 2
 170.210293417 790.289185172 173.543461043 821.015971958 193.915585049 837.402245615 c 0
558 816 m 0
 558 842.14453125 579.853515625 864 606 864 c 2
 926 864 l 2
 952.14453125 864 974 842.146484375 974 816 c 0
 974 789.853515625 952.14453125 768 926 768 c 2
 606 768 l 2
 579.853515625 768 558 789.85546875 558 816 c 0
46 816 m 0
 46 842.14453125 67.853515625 864 94 864 c 2
 414 864 l 2
 440.14453125 864 462 842.146484375 462 816 c 0
 462 789.853515625 440.14453125 768 414 768 c 2
 94 768 l 2
 67.853515625 768 46 789.85546875 46 816 c 0
574 48 m 0
 574 74.14453125 595.853515625 96 622 96 c 2
 942 96 l 2
 968.14453125 96 990 74.146484375 990 48 c 0
 990 21.853515625 968.14453125 0 942 0 c 2
 622 0 l 2
 595.853515625 0 574 21.85546875 574 48 c 0
31 48 m 0
 31 74.14453125 52.853515625 96 79 96 c 2
 398 96 l 2
 424.14453125 96 446 74.146484375 446 48 c 0
 446 21.853515625 424.14453125 0 398 0 c 2
 79 0 l 2
 52.853515625 0 31 21.85546875 31 48 c 0
EndSplineSet
EndChar

StartChar: w
Encoding: 119 119 63
Width: 1024
VWidth: 0
Flags: HW
LayerCount: 2
Fore
SplineSet
187.929608141 847.827104346 m 0
 213.97990765 850.044151113 237.609896937 830.122578912 239.827104346 804.070391859 c 2
 297.618599399 125.020324988 l 1
 467.056199477 576.853925196 l 2
 476.744107951 602.688347794 507.333429715 615.167889966 532.328132434 603.482951047 c 0
 543.74109405 598.147430122 552.838439445 587.801554738 556.943800523 576.853925196 c 2
 726.381400601 125.020324988 l 1
 784.172895654 804.070391859 l 2
 786.389942421 830.120691368 810.018204806 850.044311755 836.070391859 847.827104346 c 0
 862.122578912 845.609896937 882.044151113 821.97990765 879.827104346 795.929608141 c 2
 815.827104346 43.9296081408 l 2
 813.795187509 20.0545853083 792.933318667 0 768 0 c 2
 742 0 l 1
 704 0 l 2
 684.594583957 0 666.058417469 12.4734934906 659.056199477 31.1460748038 c 2
 512 423.295940075 l 1
 364.943800523 31.1460748038 l 2
 358.130104057 12.9762175601 339.942325584 0 320 0 c 2
 281 0 l 1
 256 0 l 2
 232.038668625 0 210.287236848 19.0860991081 208.172895654 43.9296081408 c 2
 144.172895654 795.929608141 l 2
 141.955688245 821.981795194 161.879308632 845.610057579 187.929608141 847.827104346 c 0
607 816 m 0
 607 842.14453125 628.853515625 864 655 864 c 2
 942 864 l 2
 968.14453125 864 990 842.146484375 990 816 c 0
 990 789.853515625 968.14453125 768 942 768 c 2
 655 768 l 2
 628.853515625 768 607 789.85546875 607 816 c 0
31 816 m 0
 31 842.14453125 52.853515625 864 79 864 c 2
 366 864 l 2
 392.14453125 864 414 842.146484375 414 816 c 0
 414 789.853515625 392.14453125 768 366 768 c 2
 79 768 l 2
 52.853515625 768 31 789.85546875 31 816 c 0
EndSplineSet
EndChar

StartChar: l
Encoding: 108 108 64
Width: 1024
VWidth: 0
Flags: HW
LayerCount: 2
Fore
SplineSet
160 1200 m 0
 160 1226.14447171 181.853633925 1248 208 1248 c 6
 512 1248 l 2
 541.054472683 1248 560 1220.60141632 560 1200 c 2
 560 64 l 2
 560 37.8555282921 538.146366075 16 512 16 c 0
 485.853633925 16 464 37.8555282921 464 64 c 2
 464 1152 l 1
 208 1152 l 2
 181.853633925 1152 160 1173.85552829 160 1200 c 0
160 48 m 0
 160 74.14453125 181.853515625 96 208 96 c 2
 816 96 l 2
 842.14453125 96 864 74.146484375 864 48 c 0
 864 21.853515625 842.14453125 -3.20167590865e-15 816 0 c 2
 208 0 l 2
 181.853515625 0 160 21.85546875 160 48 c 0
EndSplineSet
EndChar

StartChar: h
Encoding: 104 104 65
Width: 1024
VWidth: 0
Flags: HW
LayerCount: 2
Fore
SplineSet
768 688 m 0
 794.144471708 688 816 666.146366075 816 640 c 2
 816 64 l 2
 816 37.8555282921 794.146366075 16 768 16 c 0
 741.853633925 16 720 37.8555282921 720 64 c 2
 720 640 l 2
 720 666.146366075 741.855528292 688 768 688 c 0
256 464 m 0
 229.855528292 464 208 485.853633925 208 512 c 0
 208 715.474034493 372.525891007 880 576 880 c 0
 708.509612655 880 816 772.509840284 816 640 c 0
 816 613.855528292 794.146366075 592 768 592 c 0
 741.853633925 592 720 613.855528292 720 640 c 0
 720 719.490159716 655.490387345 784 576 784 c 0
 425.474108993 784 304 662.525965507 304 512 c 0
 304 485.853633925 282.144471708 464 256 464 c 0
48 1200 m 0
 48 1226.14447171 69.8536339246 1248 96 1248 c 2
 256 1248 l 2
 285.054472683 1248 304 1220.60141632 304 1200 c 2
 304 64 l 2
 304 37.8555282921 282.146366075 16 256 16 c 0
 229.853633925 16 208 37.8555282921 208 64 c 2
 208 1152 l 1
 96 1152 l 2
 69.8536339246 1152 48 1173.85552829 48 1200 c 0
558 48 m 0
 558 74.1444717079 579.853633925 96 606 96 c 2
 926 96 l 2
 952.144471708 96 974 74.1463660754 974 48 c 0
 974 21.8536339246 952.144471708 0 926 0 c 2
 606 0 l 2
 579.853633925 0 558 21.8555282921 558 48 c 0
47 48 m 0
 47 74.1444717079 68.8536339246 96 95 96 c 2
 414 96 l 2
 440.144471708 96 462 74.1463660754 462 48 c 0
 462 21.8536339246 440.144471708 0 414 0 c 2
 95 0 l 2
 68.8536339246 0 47 21.8555282921 47 48 c 0
EndSplineSet
EndChar

StartChar: grave
Encoding: 96 96 66
Width: 1024
VWidth: 0
Flags: HW
LayerCount: 2
Fore
SplineSet
286.058874503 1233.9411255 m 0
 304.545807738 1252.42805873 335.452852742 1252.42939825 353.941125497 1233.9411255 c 2
 737.941125497 849.941125497 l 2
 756.428058732 831.454192262 756.429398252 800.547147258 737.941125497 782.058874503 c 0
 719.452852742 763.570601748 688.545807738 763.571941268 670.058874503 782.058874503 c 2
 286.058874503 1166.0588745 l 2
 267.570601748 1184.54714726 267.571941268 1215.45419226 286.058874503 1233.9411255 c 0
EndSplineSet
EndChar

StartChar: n
Encoding: 110 110 67
Width: 1024
VWidth: 0
Flags: HW
LayerCount: 2
Fore
SplineSet
768 688 m 0
 794.144471708 688 816 666.146366075 816 640 c 2
 816 64 l 2
 816 37.8555282921 794.146366075 16 768 16 c 0
 741.853633925 16 720 37.8555282921 720 64 c 2
 720 640 l 2
 720 666.146366075 741.855528292 688 768 688 c 0
256 464 m 0
 229.855528292 464 208 485.853633925 208 512 c 0
 208 715.474034493 372.525891007 880 576 880 c 0
 708.509612655 880 816 772.509840284 816 640 c 0
 816 613.855528292 794.146366075 592 768 592 c 0
 741.853633925 592 720 613.855528292 720 640 c 0
 720 719.490159716 655.490387345 784 576 784 c 0
 425.474108993 784 304 662.525965507 304 512 c 0
 304 485.853633925 282.144471708 464 256 464 c 0
48 816 m 0
 48 842.14453125 69.853515625 864 96 864 c 2
 256 864 l 2
 285.0546875 864 304 836.6015625 304 816 c 2
 304 64 l 2
 304 37.8555282921 282.146366075 16 256 16 c 0
 229.853633925 16 208 37.8555282921 208 64 c 2
 208 768 l 1
 96 768 l 2
 69.853515625 768 48 789.85546875 48 816 c 0
558 48 m 0
 558 74.1444717079 579.853633925 96 606 96 c 2
 926 96 l 2
 952.144471708 96 974 74.1463660754 974 48 c 0
 974 21.8536339246 952.144471708 0 926 0 c 2
 606 0 l 2
 579.853633925 0 558 21.8555282921 558 48 c 0
47 48 m 4
 47 74.1444717079 68.8536339246 96 95 96 c 6
 414 96 l 6
 440.144471708 96 462 74.1463660754 462 48 c 4
 462 21.8536339246 440.144471708 0 414 0 c 6
 95 0 l 6
 68.8536339246 0 47 21.8555282921 47 48 c 4
EndSplineSet
EndChar

StartChar: u
Encoding: 117 117 68
Width: 1024
VWidth: 0
Flags: HW
LayerCount: 2
Fore
SplineSet
256 176 m 0
 229.855528292 176 208 197.853633925 208 224 c 2
 208 768 l 1
 96 768 l 2
 69.8555282921 768 48 789.853633925 48 816 c 0
 48 842.146366075 69.8555282921 864 96 864 c 2
 256 864 l 2
 276.601416319 864 304 845.054472683 304 816 c 2
 304 224 l 2
 304 197.853633925 282.144471708 176 256 176 c 0
560 816 m 0
 560 842.144471708 581.853633925 864 608 864 c 2
 768 864 l 2
 797.054472683 864 816 836.601416319 816 816 c 2
 816 96 l 1
 928 96 l 2
 954.144471708 96 976 74.1463660754 976 48 c 0
 976 21.8536339246 954.144471708 0 928 0 c 2
 768 0 l 2
 747.398583681 0 720 18.9455273174 720 48 c 2
 720 768 l 1
 608 768 l 2
 581.853633925 768 560 789.855528292 560 816 c 0
768 400 m 0
 794.14453125 400 816 378.146484375 816 352 c 0
 816 148.526367188 651.473632812 -16 448 -16 c 0
 315.490234375 -16 208 91.490234375 208 224 c 0
 208 250.14453125 229.853515625 272 256 272 c 0
 282.146484375 272 304 250.14453125 304 224 c 0
 304 144.509765625 368.509765625 80 448 80 c 0
 598.526367188 80 720 201.473632812 720 352 c 0
 720 378.146484375 741.85546875 400 768 400 c 0
EndSplineSet
EndChar

StartChar: i
Encoding: 105 105 69
Width: 1024
VWidth: 0
Flags: HW
LayerCount: 2
Fore
SplineSet
400 1152 m 0
 400 1205 443 1248 496 1248 c 0
 549 1248 592 1205 592 1152 c 0
 592 1099 549 1056 496 1056 c 0
 443 1056 400 1099 400 1152 c 0
160 816 m 0
 160 842.14453125 181.853515625 864 208 864 c 2
 512 864 l 2
 541.0546875 864 560 836.6015625 560 816 c 2
 560 64 l 2
 560 37.8555282921 538.146366075 16 512 16 c 0
 485.853633925 16 464 37.8555282921 464 64 c 2
 464 768 l 1
 208 768 l 2
 181.853515625 768 160 789.85546875 160 816 c 0
160 48 m 0
 160 74.14453125 181.853515625 96 208 96 c 2
 816 96 l 2
 842.14453125 96 864 74.146484375 864 48 c 0
 864 21.853515625 842.14453125 -3.20167590865e-15 816 0 c 2
 208 0 l 2
 181.853515625 0 160 21.85546875 160 48 c 0
EndSplineSet
EndChar

StartChar: k
Encoding: 107 107 70
Width: 1024
VWidth: 0
Flags: HW
LayerCount: 2
Fore
SplineSet
847.889464264 28.1243527032 m 0
 828.348842477 10.7549111151 797.49505284 12.5684980817 780.124352703 32.1105357362 c 2
 396.124352703 464.110535736 l 2
 378.754911115 483.651157523 380.568498082 514.50494716 400.110535736 531.875647297 c 0
 419.652573391 549.246347434 450.506205709 547.43008605 467.875647297 527.889464264 c 2
 851.875647297 95.8894642638 l 2
 869.246347434 76.3474266094 867.43008605 45.4937942912 847.889464264 28.1243527032 c 0
837.149950362 830.395413932 m 0
 853.705617854 810.16070922 850.631584804 779.406916715 830.395413932 762.850049638 c 2
 302.395413932 330.850049638 l 2
 282.16070922 314.294382146 251.406916715 317.368415196 234.850049638 337.604586068 c 0
 218.293182561 357.840756939 221.369881355 388.59428287 241.604586068 405.149950362 c 2
 769.604586068 837.149950362 l 2
 789.840756939 853.706817439 820.59428287 850.630118645 837.149950362 830.395413932 c 0
48 1200 m 0
 48 1226.14447171 69.8536339246 1248 96 1248 c 2
 256 1248 l 2
 285.054472683 1248 304 1220.60141632 304 1200 c 2
 304 64 l 2
 304 37.8555282921 282.146366075 16 256 16 c 0
 229.853633925 16 208 37.8555282921 208 64 c 2
 208 1152 l 1
 96 1152 l 2
 69.8536339246 1152 48 1173.85552829 48 1200 c 0
542 816 m 0
 542 842.14453125 563.853515625 864 590 864 c 2
 910 864 l 2
 936.14453125 864 958 842.146484375 958 816 c 0
 958 789.853515625 936.14453125 768 910 768 c 2
 590 768 l 2
 563.853515625 768 542 789.85546875 542 816 c 0
574 48 m 0
 574 74.14453125 595.853515625 96 622 96 c 2
 942 96 l 2
 968.14453125 96 990 74.146484375 990 48 c 0
 990 21.853515625 968.14453125 0 942 0 c 2
 622 0 l 2
 595.853515625 0 574 21.85546875 574 48 c 0
47 48 m 0
 47 74.1444717079 68.8536339246 96 95 96 c 2
 414 96 l 2
 440.144471708 96 462 74.1463660754 462 48 c 0
 462 21.8536339246 440.144471708 0 414 0 c 2
 95 0 l 2
 68.8536339246 0 47 21.8555282921 47 48 c 0
EndSplineSet
EndChar

StartChar: m
Encoding: 109 109 71
Width: 1024
VWidth: 0
Flags: HW
LayerCount: 2
Fore
SplineSet
512 736 m 0
 538.14453125 736 560 714.146484375 560 688 c 2
 560 64 l 2
 560 37.85546875 538.146484375 16 512 16 c 0
 485.853515625 16 464 37.85546875 464 64 c 2
 464 688 l 2
 464 714.146484375 485.85546875 736 512 736 c 0
848 736 m 0
 874.144471708 736 896 714.146366075 896 688 c 2
 896 64 l 2
 896 37.8555282921 874.146366075 16 848 16 c 0
 821.853633925 16 800 37.8555282921 800 64 c 2
 800 688 l 2
 800 714.146366075 821.855528292 736 848 736 c 0
512 592 m 0
 485.85546875 592 464 613.853515625 464 640 c 0
 464 772.509765625 571.490234375 880 704 880 c 0
 809.627929688 880 896 793.627929688 896 688 c 0
 896 661.85546875 874.146484375 640 848 640 c 0
 821.853515625 640 800 661.85546875 800 688 c 0
 800 740.372070312 756.372070312 784 704 784 c 0
 624.509765625 784 560 719.490234375 560 640 c 0
 560 613.853515625 538.14453125 592 512 592 c 0
176 592 m 0
 149.855528292 592 128 613.853633925 128 640 c 0
 128 772.509612655 235.490159716 880 368 880 c 0
 473.628193571 880 560 793.628390153 560 688 c 0
 560 661.855528292 538.146366075 640 512 640 c 0
 485.853633925 640 464 661.855528292 464 688 c 0
 464 740.371609847 420.371806429 784 368 784 c 0
 288.509840284 784 224 719.490387345 224 640 c 0
 224 613.853633925 202.144471708 592 176 592 c 0
32 816 m 0
 32 842.144471708 53.8536339246 864 80 864 c 2
 176 864 l 2
 205.054472683 864 224 836.601416319 224 816 c 2
 224 64 l 2
 224 37.8555282921 202.146366075 16 176 16 c 0
 149.853633925 16 128 37.8555282921 128 64 c 2
 128 768 l 1
 80 768 l 2
 53.8536339246 768 32 789.855528292 32 816 c 0
367 48 m 0
 367 74.14453125 388.853515625 96 415 96 c 2
 606 96 l 2
 632.14453125 96 654 74.146484375 654 48 c 0
 654 21.853515625 632.14453125 0 606 0 c 2
 415 0 l 2
 388.853515625 0 367 21.85546875 367 48 c 0
703 48 m 0
 703 74.14453125 724.853515625 96 751 96 c 2
 942 96 l 2
 968.14453125 96 990 74.146484375 990 48 c 0
 990 21.853515625 968.14453125 0 942 0 c 2
 751 0 l 2
 724.853515625 0 703 21.85546875 703 48 c 0
31 48 m 0
 31 74.14453125 52.853515625 96 79 96 c 2
 270 96 l 2
 296.14453125 96 318 74.146484375 318 48 c 0
 318 21.853515625 296.14453125 0 270 0 c 2
 79 0 l 2
 52.853515625 0 31 21.85546875 31 48 c 0
EndSplineSet
EndChar

StartChar: D
Encoding: 68 68 72
Width: 1024
VWidth: 0
Flags: HW
LayerCount: 2
Fore
SplineSet
464 1200 m 0
 464 1226.14447171 485.853633925 1248 512 1248 c 0
 759.22921543 1248 928 950.286715753 928 624 c 0
 928 297.713659606 759.229090682 0 512 0 c 0
 485.855528292 0 464 21.8536339246 464 48 c 0
 464 74.1463660754 485.855528292 96 512 96 c 0
 670.770909318 96 832 314.286340394 832 624 c 0
 832 933.713284247 670.77078457 1152 512 1152 c 0
 485.853633925 1152 464 1173.85552829 464 1200 c 0
48 48 m 0
 48 74.14453125 69.853515625 96 96 96 c 2
 512 96 l 2
 538.14453125 96 560 74.146484375 560 48 c 0
 560 21.853515625 538.14453125 0 512 0 c 2
 96 0 l 2
 69.853515625 0 48 21.85546875 48 48 c 0
48 1200 m 0
 48 1226.14447171 69.8536339246 1248 96 1248 c 2
 512 1248 l 2
 538.14453125 1248 560 1226.14648438 560 1200 c 0
 560 1173.85351562 538.14453125 1152 512 1152 c 2
 96 1152 l 2
 69.8536339246 1152 48 1173.85552829 48 1200 c 0
304 1232 m 0
 330.144471708 1232 352 1210.14636608 352 1184 c 2
 352 64 l 2
 352 37.8555282921 330.146366075 16 304 16 c 0
 277.853633925 16 256 37.8555282921 256 64 c 2
 256 1184 l 2
 256 1210.14636608 277.855528292 1232 304 1232 c 0
EndSplineSet
EndChar

StartChar: P
Encoding: 80 80 73
Width: 1024
VWidth: 0
Flags: HWO
LayerCount: 2
Fore
SplineSet
544 1200 m 0
 544 1226.14453125 565.853515625 1248 592 1248 c 0
 777.509765625 1248 928 1097.51074219 928 912 c 0
 928 726.490234375 777.510742188 576 592 576 c 0
 565.85546875 576 544 597.853515625 544 624 c 0
 544 650.146484375 565.85546875 672 592 672 c 0
 724.489257812 672 832 779.509765625 832 912 c 0
 832 1044.48925781 724.490234375 1152 592 1152 c 0
 565.853515625 1152 544 1173.85546875 544 1200 c 0
264 624 m 0
 264 650.14453125 285.853515625 672 312 672 c 2
 592 672 l 2
 618.14453125 672 640 650.146484375 640 624 c 0
 640 597.853515625 618.14453125 576 592 576 c 2
 312 576 l 2
 285.853515625 576 264 597.85546875 264 624 c 0
48 48 m 0
 48 74.14453125 69.853515625 96 96 96 c 2
 568 96 l 2
 594.14453125 96 616 74.146484375 616 48 c 0
 616 21.853515625 594.14453125 0 568 0 c 2
 96 0 l 2
 69.853515625 0 48 21.85546875 48 48 c 0
48 1200 m 0
 48 1226.14447171 69.8536339246 1248 96 1248 c 2
 592 1248 l 2
 618.14453125 1248 640 1226.14648438 640 1200 c 0
 640 1173.85351562 618.14453125 1152 592 1152 c 2
 96 1152 l 2
 69.8536339246 1152 48 1173.85552829 48 1200 c 0
304 1232 m 0
 330.144471708 1232 352 1210.14636608 352 1184 c 2
 352 64 l 2
 352 37.8555282921 330.146366075 16 304 16 c 0
 277.853633925 16 256 37.8555282921 256 64 c 2
 256 1184 l 2
 256 1210.14636608 277.855528292 1232 304 1232 c 0
EndSplineSet
EndChar
